<svg width="156" height="44" viewBox="0 0 156 44" fill="none" xmlns="http://www.w3.org/2000/svg">
<path d="M42.9596 30.24C40.8796 30.24 39.3196 29.656 38.2796 28.488C37.2396 27.304 36.6796 25.72 36.5996 23.736C36.5836 23.304 36.5756 22.6 36.5756 21.624C36.5756 20.632 36.5836 19.912 36.5996 19.464C36.6796 17.48 37.2396 15.904 38.2796 14.736C39.3196 13.552 40.8796 12.96 42.9596 12.96C44.3836 12.96 45.5676 13.224 46.5116 13.752C47.4556 14.264 48.1516 14.92 48.5996 15.72C49.0636 16.504 49.3196 17.312 49.3676 18.144V18.192C49.3676 18.32 49.3196 18.424 49.2236 18.504C49.1276 18.584 49.0076 18.624 48.8636 18.624H48.3836C48.0956 18.624 47.9196 18.456 47.8556 18.12C47.5516 16.76 46.9996 15.8 46.1996 15.24C45.3996 14.68 44.3196 14.4 42.9596 14.4C41.4556 14.4 40.2876 14.824 39.4556 15.672C38.6236 16.52 38.1756 17.824 38.1116 19.584C38.0956 20.016 38.0876 20.68 38.0876 21.576C38.0876 22.472 38.0956 23.152 38.1116 23.616C38.1756 25.376 38.6236 26.68 39.4556 27.528C40.2876 28.376 41.4556 28.8 42.9596 28.8C44.3196 28.8 45.3996 28.52 46.1996 27.96C46.9996 27.4 47.5516 26.44 47.8556 25.08C47.9196 24.744 48.0956 24.576 48.3836 24.576H48.8636C49.0076 24.576 49.1276 24.624 49.2236 24.72C49.3356 24.8 49.3836 24.912 49.3676 25.056C49.3196 25.888 49.0636 26.704 48.5996 27.504C48.1516 28.288 47.4556 28.944 46.5116 29.472C45.5676 29.984 44.3836 30.24 42.9596 30.24ZM57.3444 30.24C55.6804 30.24 54.3844 29.736 53.4564 28.728C52.5444 27.704 52.0644 26.384 52.0164 24.768L51.9924 23.76L52.0164 22.752C52.0644 21.136 52.5444 19.824 53.4564 18.816C54.3844 17.792 55.6804 17.28 57.3444 17.28C59.0084 17.28 60.2964 17.792 61.2084 18.816C62.1364 19.824 62.6244 21.136 62.6724 22.752C62.6884 22.912 62.6964 23.248 62.6964 23.76C62.6964 24.272 62.6884 24.608 62.6724 24.768C62.6244 26.384 62.1364 27.704 61.2084 28.728C60.2964 29.736 59.0084 30.24 57.3444 30.24ZM57.3444 28.848C58.4804 28.848 59.3924 28.488 60.0804 27.768C60.7844 27.032 61.1604 25.992 61.2084 24.648C61.2244 24.488 61.2324 24.192 61.2324 23.76C61.2324 23.328 61.2244 23.032 61.2084 22.872C61.1604 21.528 60.7844 20.496 60.0804 19.776C59.3924 19.04 58.4804 18.672 57.3444 18.672C56.2084 18.672 55.2884 19.04 54.5844 19.776C53.8964 20.496 53.5284 21.528 53.4804 22.872L53.4564 23.76L53.4804 24.648C53.5284 25.992 53.8964 27.032 54.5844 27.768C55.2884 28.488 56.2084 28.848 57.3444 28.848ZM66.5033 30C66.3433 30 66.2153 29.952 66.1193 29.856C66.0233 29.76 65.9753 29.632 65.9753 29.472V18.048C65.9753 17.888 66.0233 17.76 66.1193 17.664C66.2153 17.568 66.3433 17.52 66.5033 17.52H66.9113C67.0713 17.52 67.1993 17.568 67.2953 17.664C67.3913 17.76 67.4393 17.888 67.4393 18.048V19.176C67.9193 18.552 68.4633 18.08 69.0713 17.76C69.6953 17.44 70.4953 17.28 71.4713 17.28C73.0393 17.28 74.2473 17.784 75.0953 18.792C75.9433 19.784 76.3672 21.072 76.3672 22.656V29.472C76.3672 29.632 76.3193 29.76 76.2233 29.856C76.1273 29.952 75.9993 30 75.8393 30H75.4313C75.2713 30 75.1433 29.952 75.0473 29.856C74.9513 29.76 74.9033 29.632 74.9033 29.472V22.776C74.9033 21.48 74.5833 20.472 73.9433 19.752C73.3193 19.032 72.4153 18.672 71.2313 18.672C70.0793 18.672 69.1593 19.04 68.4713 19.776C67.7833 20.496 67.4393 21.496 67.4393 22.776V29.472C67.4393 29.632 67.3913 29.76 67.2953 29.856C67.1993 29.952 67.0713 30 66.9113 30H66.5033ZM84.144 30C82.96 30 82.12 29.648 81.624 28.944C81.128 28.224 80.88 27.24 80.88 25.992V18.912H79.008C78.848 18.912 78.72 18.864 78.624 18.768C78.528 18.672 78.48 18.544 78.48 18.384V18.048C78.48 17.888 78.528 17.76 78.624 17.664C78.72 17.568 78.848 17.52 79.008 17.52H80.88V13.488C80.88 13.328 80.928 13.2 81.024 13.104C81.12 13.008 81.248 12.96 81.408 12.96H81.816C81.976 12.96 82.104 13.008 82.2 13.104C82.296 13.2 82.344 13.328 82.344 13.488V17.52H85.32C85.48 17.52 85.608 17.568 85.704 17.664C85.8 17.76 85.848 17.888 85.848 18.048V18.384C85.848 18.544 85.8 18.672 85.704 18.768C85.608 18.864 85.48 18.912 85.32 18.912H82.344V25.896C82.344 26.792 82.488 27.472 82.776 27.936C83.08 28.384 83.576 28.608 84.264 28.608H85.56C85.72 28.608 85.848 28.656 85.944 28.752C86.04 28.848 86.088 28.976 86.088 29.136V29.472C86.088 29.632 86.04 29.76 85.944 29.856C85.848 29.952 85.72 30 85.56 30H84.144ZM91.929 30.24C91.161 30.24 90.449 30.08 89.793 29.76C89.137 29.44 88.609 29.008 88.209 28.464C87.825 27.92 87.633 27.32 87.633 26.664C87.633 25.608 88.057 24.744 88.905 24.072C89.769 23.4 90.929 22.968 92.385 22.776L96.177 22.248V21.408C96.177 20.528 95.905 19.856 95.361 19.392C94.833 18.912 94.017 18.672 92.913 18.672C92.097 18.672 91.425 18.832 90.897 19.152C90.385 19.472 90.057 19.856 89.913 20.304C89.849 20.496 89.769 20.632 89.673 20.712C89.593 20.776 89.481 20.808 89.337 20.808H89.001C88.857 20.808 88.729 20.76 88.617 20.664C88.521 20.552 88.473 20.424 88.473 20.28C88.473 19.928 88.633 19.52 88.953 19.056C89.273 18.576 89.769 18.16 90.441 17.808C91.113 17.456 91.937 17.28 92.913 17.28C94.625 17.28 95.841 17.688 96.561 18.504C97.281 19.32 97.641 20.312 97.641 21.48V29.472C97.641 29.632 97.593 29.76 97.497 29.856C97.401 29.952 97.273 30 97.113 30H96.705C96.545 30 96.417 29.952 96.321 29.856C96.225 29.76 96.177 29.632 96.177 29.472V28.344C95.825 28.872 95.305 29.32 94.617 29.688C93.945 30.056 93.049 30.24 91.929 30.24ZM92.169 28.848C93.337 28.848 94.297 28.464 95.049 27.696C95.801 26.928 96.177 25.824 96.177 24.384V23.568L93.081 24C91.769 24.176 90.777 24.48 90.105 24.912C89.433 25.344 89.097 25.888 89.097 26.544C89.097 27.28 89.401 27.848 90.009 28.248C90.633 28.648 91.353 28.848 92.169 28.848ZM106.164 30.24C104.5 30.24 103.212 29.76 102.3 28.8C101.388 27.824 100.908 26.464 100.86 24.72L100.836 23.76L100.86 22.8C100.908 21.056 101.388 19.704 102.3 18.744C103.212 17.768 104.5 17.28 106.164 17.28C107.22 17.28 108.116 17.472 108.852 17.856C109.604 18.224 110.164 18.704 110.532 19.296C110.9 19.872 111.1 20.472 111.132 21.096C111.148 21.24 111.1 21.368 110.988 21.48C110.876 21.576 110.748 21.624 110.604 21.624H110.268C110.108 21.624 109.988 21.592 109.908 21.528C109.844 21.448 109.772 21.312 109.692 21.12C109.372 20.24 108.924 19.616 108.348 19.248C107.772 18.864 107.044 18.672 106.164 18.672C105.012 18.672 104.092 19.024 103.404 19.728C102.732 20.416 102.372 21.48 102.324 22.92L102.3 23.76L102.324 24.6C102.372 26.04 102.732 27.112 103.404 27.816C104.092 28.504 105.012 28.848 106.164 28.848C107.044 28.848 107.772 28.664 108.348 28.296C108.924 27.912 109.372 27.28 109.692 26.4C109.772 26.208 109.844 26.08 109.908 26.016C109.988 25.936 110.108 25.896 110.268 25.896H110.604C110.748 25.896 110.876 25.952 110.988 26.064C111.1 26.16 111.148 26.28 111.132 26.424C111.1 27.048 110.9 27.656 110.532 28.248C110.164 28.824 109.604 29.304 108.852 29.688C108.116 30.056 107.22 30.24 106.164 30.24ZM118.503 30C117.319 30 116.479 29.648 115.983 28.944C115.487 28.224 115.239 27.24 115.239 25.992V18.912H113.367C113.207 18.912 113.079 18.864 112.983 18.768C112.887 18.672 112.839 18.544 112.839 18.384V18.048C112.839 17.888 112.887 17.76 112.983 17.664C113.079 17.568 113.207 17.52 113.367 17.52H115.239V13.488C115.239 13.328 115.287 13.2 115.383 13.104C115.479 13.008 115.607 12.96 115.767 12.96H116.175C116.335 12.96 116.463 13.008 116.559 13.104C116.655 13.2 116.703 13.328 116.703 13.488V17.52H119.679C119.839 17.52 119.967 17.568 120.063 17.664C120.159 17.76 120.207 17.888 120.207 18.048V18.384C120.207 18.544 120.159 18.672 120.063 18.768C119.967 18.864 119.839 18.912 119.679 18.912H116.703V25.896C116.703 26.792 116.847 27.472 117.135 27.936C117.439 28.384 117.935 28.608 118.623 28.608H119.919C120.079 28.608 120.207 28.656 120.303 28.752C120.399 28.848 120.447 28.976 120.447 29.136V29.472C120.447 29.632 120.399 29.76 120.303 29.856C120.207 29.952 120.079 30 119.919 30H118.503Z" fill="black"/>
<rect x="1" y="1" width="154" height="42" stroke="black" stroke-width="2"/>
</svg>
