<svg width="104" height="44" viewBox="0 0 104 44" fill="none" xmlns="http://www.w3.org/2000/svg">
<path d="M9.784 30C9.624 30 9.496 29.952 9.4 29.856C9.304 29.76 9.256 29.632 9.256 29.472V13.752C9.256 13.592 9.304 13.464 9.4 13.368C9.496 13.256 9.624 13.2 9.784 13.2H15.616C17.328 13.2 18.672 13.632 19.648 14.496C20.64 15.344 21.136 16.568 21.136 18.168C21.136 19.768 20.64 21 19.648 21.864C18.672 22.712 17.328 23.136 15.616 23.136H10.768V29.472C10.768 29.632 10.712 29.76 10.6 29.856C10.504 29.952 10.376 30 10.216 30H9.784ZM15.496 21.696C16.872 21.696 17.904 21.4 18.592 20.808C19.28 20.2 19.624 19.32 19.624 18.168C19.624 17.016 19.28 16.144 18.592 15.552C17.904 14.944 16.872 14.64 15.496 14.64H10.768V21.696H15.496ZM24.5423 30C24.3823 30 24.2543 29.952 24.1583 29.856C24.0623 29.76 24.0143 29.632 24.0143 29.472V18.072C24.0143 17.912 24.0623 17.784 24.1583 17.688C24.2543 17.576 24.3823 17.52 24.5423 17.52H24.9263C25.0863 17.52 25.2143 17.576 25.3103 17.688C25.4223 17.784 25.4783 17.912 25.4783 18.072V19.176C26.0543 18.072 27.1423 17.52 28.7423 17.52H29.6303C29.7903 17.52 29.9183 17.568 30.0143 17.664C30.1103 17.76 30.1583 17.888 30.1583 18.048V18.384C30.1583 18.544 30.1103 18.672 30.0143 18.768C29.9183 18.864 29.7903 18.912 29.6303 18.912H28.5983C27.6383 18.912 26.8783 19.192 26.3183 19.752C25.7583 20.312 25.4783 21.072 25.4783 22.032V29.472C25.4783 29.632 25.4223 29.76 25.3103 29.856C25.2143 29.952 25.0863 30 24.9263 30H24.5423ZM36.8288 30.24C35.1648 30.24 33.8688 29.736 32.9408 28.728C32.0288 27.704 31.5488 26.384 31.5008 24.768L31.4768 23.76L31.5008 22.752C31.5488 21.136 32.0288 19.824 32.9408 18.816C33.8688 17.792 35.1648 17.28 36.8288 17.28C38.4928 17.28 39.7808 17.792 40.6928 18.816C41.6208 19.824 42.1088 21.136 42.1568 22.752C42.1728 22.912 42.1808 23.248 42.1808 23.76C42.1808 24.272 42.1728 24.608 42.1568 24.768C42.1088 26.384 41.6208 27.704 40.6928 28.728C39.7808 29.736 38.4928 30.24 36.8288 30.24ZM36.8288 28.848C37.9648 28.848 38.8768 28.488 39.5648 27.768C40.2688 27.032 40.6448 25.992 40.6928 24.648C40.7088 24.488 40.7168 24.192 40.7168 23.76C40.7168 23.328 40.7088 23.032 40.6928 22.872C40.6448 21.528 40.2688 20.496 39.5648 19.776C38.8768 19.04 37.9648 18.672 36.8288 18.672C35.6928 18.672 34.7728 19.04 34.0688 19.776C33.3808 20.496 33.0128 21.528 32.9648 22.872L32.9408 23.76L32.9648 24.648C33.0128 25.992 33.3808 27.032 34.0688 27.768C34.7728 28.488 35.6928 28.848 36.8288 28.848ZM45.9396 14.952C45.7796 14.952 45.6516 14.904 45.5556 14.808C45.4596 14.712 45.4116 14.584 45.4116 14.424V13.512C45.4116 13.352 45.4596 13.224 45.5556 13.128C45.6516 13.016 45.7796 12.96 45.9396 12.96H46.8516C47.0116 12.96 47.1396 13.016 47.2356 13.128C47.3476 13.224 47.4036 13.352 47.4036 13.512V14.424C47.4036 14.584 47.3476 14.712 47.2356 14.808C47.1396 14.904 47.0116 14.952 46.8516 14.952H45.9396ZM43.4196 34.56C43.2596 34.56 43.1316 34.512 43.0356 34.416C42.9396 34.32 42.8916 34.192 42.8916 34.032V33.696C42.8916 33.536 42.9396 33.408 43.0356 33.312C43.1316 33.216 43.2596 33.168 43.4196 33.168H43.5156C44.3956 33.168 44.9716 32.944 45.2436 32.496C45.5316 32.048 45.6756 31.392 45.6756 30.528V18.048C45.6756 17.888 45.7236 17.76 45.8196 17.664C45.9156 17.568 46.0436 17.52 46.2036 17.52H46.6116C46.7716 17.52 46.8996 17.568 46.9956 17.664C47.0916 17.76 47.1396 17.888 47.1396 18.048V30.528C47.1396 31.792 46.8756 32.776 46.3476 33.48C45.8196 34.2 44.8756 34.56 43.5156 34.56H43.4196ZM55.6932 30.24C54.1732 30.24 52.9492 29.744 52.0212 28.752C51.0932 27.744 50.5652 26.4 50.4372 24.72L50.4132 23.76L50.4372 22.8C50.5652 21.136 51.0852 19.8 51.9972 18.792C52.9252 17.784 54.1572 17.28 55.6932 17.28C57.3572 17.28 58.6532 17.832 59.5812 18.936C60.5252 20.04 60.9972 21.552 60.9972 23.472V23.832C60.9972 23.992 60.9412 24.12 60.8292 24.216C60.7332 24.312 60.6052 24.36 60.4452 24.36H51.9012V24.6C51.9332 25.352 52.1012 26.056 52.4052 26.712C52.7252 27.352 53.1652 27.872 53.7252 28.272C54.2852 28.656 54.9412 28.848 55.6932 28.848C56.5732 28.848 57.2852 28.68 57.8292 28.344C58.3892 27.992 58.7892 27.64 59.0292 27.288C59.1732 27.096 59.2772 26.976 59.3412 26.928C59.4212 26.88 59.5572 26.856 59.7492 26.856H60.1332C60.2772 26.856 60.3972 26.896 60.4932 26.976C60.5892 27.056 60.6372 27.16 60.6372 27.288C60.6372 27.624 60.4212 28.032 59.9892 28.512C59.5732 28.976 58.9892 29.384 58.2372 29.736C57.4852 30.072 56.6372 30.24 55.6932 30.24ZM59.5332 23.016V22.92C59.5332 21.688 59.1812 20.672 58.4772 19.872C57.7892 19.072 56.8612 18.672 55.6932 18.672C54.5252 18.672 53.5972 19.072 52.9092 19.872C52.2372 20.672 51.9012 21.688 51.9012 22.92V23.016H59.5332ZM68.8908 30.24C67.2268 30.24 65.9388 29.76 65.0268 28.8C64.1148 27.824 63.6348 26.464 63.5868 24.72L63.5628 23.76L63.5868 22.8C63.6348 21.056 64.1148 19.704 65.0268 18.744C65.9388 17.768 67.2268 17.28 68.8908 17.28C69.9468 17.28 70.8428 17.472 71.5788 17.856C72.3308 18.224 72.8908 18.704 73.2588 19.296C73.6268 19.872 73.8268 20.472 73.8588 21.096C73.8748 21.24 73.8268 21.368 73.7148 21.48C73.6028 21.576 73.4748 21.624 73.3308 21.624H72.9948C72.8348 21.624 72.7148 21.592 72.6348 21.528C72.5708 21.448 72.4988 21.312 72.4188 21.12C72.0988 20.24 71.6508 19.616 71.0748 19.248C70.4988 18.864 69.7708 18.672 68.8908 18.672C67.7388 18.672 66.8188 19.024 66.1308 19.728C65.4588 20.416 65.0988 21.48 65.0508 22.92L65.0268 23.76L65.0508 24.6C65.0988 26.04 65.4588 27.112 66.1308 27.816C66.8188 28.504 67.7388 28.848 68.8908 28.848C69.7708 28.848 70.4988 28.664 71.0748 28.296C71.6508 27.912 72.0988 27.28 72.4188 26.4C72.4988 26.208 72.5708 26.08 72.6348 26.016C72.7148 25.936 72.8348 25.896 72.9948 25.896H73.3308C73.4748 25.896 73.6028 25.952 73.7148 26.064C73.8268 26.16 73.8748 26.28 73.8588 26.424C73.8268 27.048 73.6268 27.656 73.2588 28.248C72.8908 28.824 72.3308 29.304 71.5788 29.688C70.8428 30.056 69.9468 30.24 68.8908 30.24ZM81.2299 30C80.0459 30 79.2059 29.648 78.7099 28.944C78.2139 28.224 77.9659 27.24 77.9659 25.992V18.912H76.0939C75.9339 18.912 75.8059 18.864 75.7099 18.768C75.6139 18.672 75.5659 18.544 75.5659 18.384V18.048C75.5659 17.888 75.6139 17.76 75.7099 17.664C75.8059 17.568 75.9339 17.52 76.0939 17.52H77.9659V13.488C77.9659 13.328 78.0139 13.2 78.1099 13.104C78.2059 13.008 78.3339 12.96 78.4939 12.96H78.9019C79.0619 12.96 79.1899 13.008 79.2859 13.104C79.3819 13.2 79.4299 13.328 79.4299 13.488V17.52H82.4059C82.5659 17.52 82.6939 17.568 82.7899 17.664C82.8859 17.76 82.9339 17.888 82.9339 18.048V18.384C82.9339 18.544 82.8859 18.672 82.7899 18.768C82.6939 18.864 82.5659 18.912 82.4059 18.912H79.4299V25.896C79.4299 26.792 79.5739 27.472 79.8619 27.936C80.1659 28.384 80.6619 28.608 81.3499 28.608H82.6459C82.8059 28.608 82.9339 28.656 83.0299 28.752C83.1259 28.848 83.1739 28.976 83.1739 29.136V29.472C83.1739 29.632 83.1259 29.76 83.0299 29.856C82.9339 29.952 82.8059 30 82.6459 30H81.2299ZM89.6149 30.24C88.5749 30.24 87.6949 30.064 86.9749 29.712C86.2709 29.36 85.7349 28.96 85.3669 28.512C85.0149 28.064 84.8389 27.704 84.8389 27.432C84.8389 27.288 84.8949 27.176 85.0069 27.096C85.1189 27 85.2389 26.952 85.3669 26.952H85.7269C85.8389 26.952 85.9269 26.976 85.9909 27.024C86.0709 27.056 86.1589 27.136 86.2549 27.264C86.6069 27.76 87.0309 28.152 87.5269 28.44C88.0389 28.712 88.7349 28.848 89.6149 28.848C90.6069 28.848 91.4069 28.664 92.0149 28.296C92.6229 27.912 92.9269 27.368 92.9269 26.664C92.9269 26.232 92.7989 25.88 92.5429 25.608C92.3029 25.336 91.9029 25.104 91.3429 24.912C90.7989 24.704 89.9829 24.472 88.8949 24.216C87.4709 23.896 86.4949 23.456 85.9669 22.896C85.4549 22.336 85.1989 21.624 85.1989 20.76C85.1989 20.168 85.3589 19.608 85.6789 19.08C86.0149 18.552 86.5029 18.12 87.1429 17.784C87.7989 17.448 88.5829 17.28 89.4949 17.28C90.4549 17.28 91.2629 17.448 91.9189 17.784C92.5909 18.104 93.0869 18.48 93.4069 18.912C93.7429 19.344 93.9109 19.696 93.9109 19.968C93.9109 20.112 93.8549 20.232 93.7429 20.328C93.6469 20.408 93.5269 20.448 93.3829 20.448H93.0229C92.7989 20.448 92.6229 20.344 92.4949 20.136C92.1749 19.656 91.8069 19.296 91.3909 19.056C90.9909 18.8 90.3589 18.672 89.4949 18.672C88.5669 18.672 87.8629 18.864 87.3829 19.248C86.9029 19.632 86.6629 20.136 86.6629 20.76C86.6629 21.144 86.7589 21.464 86.9509 21.72C87.1429 21.976 87.5029 22.216 88.0309 22.44C88.5589 22.648 89.3269 22.864 90.3349 23.088C91.8229 23.424 92.8709 23.872 93.4789 24.432C94.0869 24.992 94.3909 25.736 94.3909 26.664C94.3909 27.32 94.2069 27.92 93.8389 28.464C93.4709 29.008 92.9269 29.44 92.2069 29.76C91.4869 30.08 90.6229 30.24 89.6149 30.24Z" fill="black"/>
<rect x="1" y="1" width="102" height="42" stroke="black" stroke-width="2"/>
</svg>
