<svg width="156" height="44" viewBox="0 0 156 44" fill="none" xmlns="http://www.w3.org/2000/svg">
<path d="M48.6043 30C48.4443 30 48.3163 29.952 48.2203 29.856C48.1243 29.76 48.0763 29.632 48.0763 29.472V13.752C48.0763 13.592 48.1243 13.464 48.2203 13.368C48.3163 13.256 48.4443 13.2 48.6043 13.2H49.0363C49.2123 13.2 49.3483 13.248 49.4443 13.344C49.5403 13.44 49.5883 13.576 49.5883 13.752V20.76H58.8523V13.752C58.8523 13.592 58.9003 13.464 58.9963 13.368C59.0923 13.256 59.2203 13.2 59.3803 13.2H59.8123C59.9883 13.2 60.1243 13.248 60.2203 13.344C60.3163 13.44 60.3643 13.576 60.3643 13.752V29.472C60.3643 29.632 60.3083 29.76 60.1963 29.856C60.1003 29.952 59.9723 30 59.8123 30H59.3803C59.2203 30 59.0923 29.952 58.9963 29.856C58.9003 29.76 58.8523 29.632 58.8523 29.472V22.2H49.5883V29.472C49.5883 29.632 49.5323 29.76 49.4203 29.856C49.3243 29.952 49.1963 30 49.0363 30H48.6043ZM69.321 30.24C67.657 30.24 66.361 29.736 65.433 28.728C64.521 27.704 64.041 26.384 63.993 24.768L63.969 23.76L63.993 22.752C64.041 21.136 64.521 19.824 65.433 18.816C66.361 17.792 67.657 17.28 69.321 17.28C70.985 17.28 72.273 17.792 73.185 18.816C74.113 19.824 74.601 21.136 74.649 22.752C74.665 22.912 74.673 23.248 74.673 23.76C74.673 24.272 74.665 24.608 74.649 24.768C74.601 26.384 74.113 27.704 73.185 28.728C72.273 29.736 70.985 30.24 69.321 30.24ZM69.321 28.848C70.457 28.848 71.369 28.488 72.057 27.768C72.761 27.032 73.137 25.992 73.185 24.648C73.201 24.488 73.209 24.192 73.209 23.76C73.209 23.328 73.201 23.032 73.185 22.872C73.137 21.528 72.761 20.496 72.057 19.776C71.369 19.04 70.457 18.672 69.321 18.672C68.185 18.672 67.265 19.04 66.561 19.776C65.873 20.496 65.505 21.528 65.457 22.872L65.433 23.76L65.457 24.648C65.505 25.992 65.873 27.032 66.561 27.768C67.265 28.488 68.185 28.848 69.321 28.848ZM78.4798 30C78.3198 30 78.1918 29.952 78.0958 29.856C77.9998 29.76 77.9518 29.632 77.9518 29.472V18.048C77.9518 17.888 77.9998 17.76 78.0958 17.664C78.1918 17.568 78.3198 17.52 78.4798 17.52H78.8878C79.0478 17.52 79.1758 17.568 79.2718 17.664C79.3678 17.76 79.4158 17.888 79.4158 18.048V18.888C79.8318 18.36 80.3118 17.96 80.8558 17.688C81.4158 17.416 82.0798 17.28 82.8478 17.28C84.6398 17.28 85.9198 18.032 86.6878 19.536C87.0718 18.848 87.6158 18.304 88.3198 17.904C89.0398 17.488 89.8558 17.28 90.7678 17.28C92.0958 17.28 93.1758 17.736 94.0078 18.648C94.8398 19.544 95.2558 20.824 95.2558 22.488V29.472C95.2558 29.632 95.2078 29.76 95.1118 29.856C95.0158 29.952 94.8878 30 94.7278 30H94.3198C94.1598 30 94.0318 29.952 93.9358 29.856C93.8398 29.76 93.7918 29.632 93.7918 29.472V22.728C93.7918 21.272 93.4878 20.232 92.8798 19.608C92.2878 18.984 91.5038 18.672 90.5278 18.672C89.6638 18.672 88.9118 18.992 88.2718 19.632C87.6478 20.256 87.3358 21.288 87.3358 22.728V29.472C87.3358 29.632 87.2878 29.76 87.1918 29.856C87.0958 29.952 86.9678 30 86.8078 30H86.3998C86.2398 30 86.1118 29.952 86.0158 29.856C85.9198 29.76 85.8718 29.632 85.8718 29.472V22.728C85.8718 21.288 85.5598 20.256 84.9358 19.632C84.3118 18.992 83.5358 18.672 82.6078 18.672C81.7438 18.672 80.9918 18.992 80.3518 19.632C79.7278 20.256 79.4158 21.28 79.4158 22.704V29.472C79.4158 29.632 79.3678 29.76 79.2718 29.856C79.1758 29.952 79.0478 30 78.8878 30H78.4798ZM103.654 30.24C102.134 30.24 100.91 29.744 99.9821 28.752C99.0541 27.744 98.5261 26.4 98.3981 24.72L98.3741 23.76L98.3981 22.8C98.5261 21.136 99.0461 19.8 99.9581 18.792C100.886 17.784 102.118 17.28 103.654 17.28C105.318 17.28 106.614 17.832 107.542 18.936C108.486 20.04 108.958 21.552 108.958 23.472V23.832C108.958 23.992 108.902 24.12 108.79 24.216C108.694 24.312 108.566 24.36 108.406 24.36H99.8621V24.6C99.8941 25.352 100.062 26.056 100.366 26.712C100.686 27.352 101.126 27.872 101.686 28.272C102.246 28.656 102.902 28.848 103.654 28.848C104.534 28.848 105.246 28.68 105.79 28.344C106.35 27.992 106.75 27.64 106.99 27.288C107.134 27.096 107.238 26.976 107.302 26.928C107.382 26.88 107.518 26.856 107.71 26.856H108.094C108.238 26.856 108.358 26.896 108.454 26.976C108.55 27.056 108.598 27.16 108.598 27.288C108.598 27.624 108.382 28.032 107.95 28.512C107.534 28.976 106.95 29.384 106.198 29.736C105.446 30.072 104.598 30.24 103.654 30.24ZM107.494 23.016V22.92C107.494 21.688 107.142 20.672 106.438 19.872C105.75 19.072 104.822 18.672 103.654 18.672C102.486 18.672 101.558 19.072 100.87 19.872C100.198 20.672 99.8621 21.688 99.8621 22.92V23.016H107.494Z" fill="black"/>
<rect x="1" y="1" width="154" height="42" stroke="black" stroke-width="2"/>
</svg>
