<svg width="156" height="44" viewBox="0 0 156 44" fill="none" xmlns="http://www.w3.org/2000/svg">
<path d="M36.5223 30C36.3623 30 36.2343 29.952 36.1383 29.856C36.0423 29.76 35.9943 29.632 35.9943 29.472V13.752C35.9943 13.592 36.0423 13.464 36.1383 13.368C36.2343 13.256 36.3623 13.2 36.5223 13.2H42.3543C44.0663 13.2 45.4103 13.632 46.3863 14.496C47.3783 15.344 47.8743 16.568 47.8743 18.168C47.8743 19.768 47.3783 21 46.3863 21.864C45.4103 22.712 44.0663 23.136 42.3543 23.136H37.5063V29.472C37.5063 29.632 37.4503 29.76 37.3383 29.856C37.2423 29.952 37.1143 30 36.9543 30H36.5223ZM42.2343 21.696C43.6103 21.696 44.6423 21.4 45.3303 20.808C46.0183 20.2 46.3623 19.32 46.3623 18.168C46.3623 17.016 46.0183 16.144 45.3303 15.552C44.6423 14.944 43.6103 14.64 42.2343 14.64H37.5063V21.696H42.2343ZM51.2806 30C51.1206 30 50.9926 29.952 50.8966 29.856C50.8006 29.76 50.7526 29.632 50.7526 29.472V18.072C50.7526 17.912 50.8006 17.784 50.8966 17.688C50.9926 17.576 51.1206 17.52 51.2806 17.52H51.6646C51.8246 17.52 51.9526 17.576 52.0486 17.688C52.1606 17.784 52.2166 17.912 52.2166 18.072V19.176C52.7926 18.072 53.8806 17.52 55.4806 17.52H56.3686C56.5286 17.52 56.6566 17.568 56.7526 17.664C56.8486 17.76 56.8966 17.888 56.8966 18.048V18.384C56.8966 18.544 56.8486 18.672 56.7526 18.768C56.6566 18.864 56.5286 18.912 56.3686 18.912H55.3366C54.3766 18.912 53.6166 19.192 53.0566 19.752C52.4966 20.312 52.2166 21.072 52.2166 22.032V29.472C52.2166 29.632 52.1606 29.76 52.0486 29.856C51.9526 29.952 51.8246 30 51.6646 30H51.2806ZM63.5671 30.24C61.9031 30.24 60.6071 29.736 59.6791 28.728C58.7671 27.704 58.2871 26.384 58.2391 24.768L58.2151 23.76L58.2391 22.752C58.2871 21.136 58.7671 19.824 59.6791 18.816C60.6071 17.792 61.9031 17.28 63.5671 17.28C65.2311 17.28 66.5191 17.792 67.4311 18.816C68.3591 19.824 68.8471 21.136 68.8951 22.752C68.9111 22.912 68.9191 23.248 68.9191 23.76C68.9191 24.272 68.9111 24.608 68.8951 24.768C68.8471 26.384 68.3591 27.704 67.4311 28.728C66.5191 29.736 65.2311 30.24 63.5671 30.24ZM63.5671 28.848C64.7031 28.848 65.6151 28.488 66.3031 27.768C67.0071 27.032 67.3831 25.992 67.4311 24.648C67.4471 24.488 67.4551 24.192 67.4551 23.76C67.4551 23.328 67.4471 23.032 67.4311 22.872C67.3831 21.528 67.0071 20.496 66.3031 19.776C65.6151 19.04 64.7031 18.672 63.5671 18.672C62.4311 18.672 61.5111 19.04 60.8071 19.776C60.1191 20.496 59.7511 21.528 59.7031 22.872L59.6791 23.76L59.7031 24.648C59.7511 25.992 60.1191 27.032 60.8071 27.768C61.5111 28.488 62.4311 28.848 63.5671 28.848ZM72.6779 14.952C72.5179 14.952 72.3899 14.904 72.2939 14.808C72.1979 14.712 72.1499 14.584 72.1499 14.424V13.512C72.1499 13.352 72.1979 13.224 72.2939 13.128C72.3899 13.016 72.5179 12.96 72.6779 12.96H73.5899C73.7499 12.96 73.8779 13.016 73.9739 13.128C74.0859 13.224 74.1419 13.352 74.1419 13.512V14.424C74.1419 14.584 74.0859 14.712 73.9739 14.808C73.8779 14.904 73.7499 14.952 73.5899 14.952H72.6779ZM70.1579 34.56C69.9979 34.56 69.8699 34.512 69.7739 34.416C69.6779 34.32 69.6299 34.192 69.6299 34.032V33.696C69.6299 33.536 69.6779 33.408 69.7739 33.312C69.8699 33.216 69.9979 33.168 70.1579 33.168H70.2539C71.1339 33.168 71.7099 32.944 71.9819 32.496C72.2699 32.048 72.4139 31.392 72.4139 30.528V18.048C72.4139 17.888 72.4619 17.76 72.5579 17.664C72.6539 17.568 72.7819 17.52 72.9419 17.52H73.3499C73.5099 17.52 73.6379 17.568 73.7339 17.664C73.8299 17.76 73.8779 17.888 73.8779 18.048V30.528C73.8779 31.792 73.6139 32.776 73.0859 33.48C72.5579 34.2 71.6139 34.56 70.2539 34.56H70.1579ZM82.4315 30.24C80.9115 30.24 79.6875 29.744 78.7595 28.752C77.8315 27.744 77.3035 26.4 77.1755 24.72L77.1515 23.76L77.1755 22.8C77.3035 21.136 77.8235 19.8 78.7355 18.792C79.6635 17.784 80.8955 17.28 82.4315 17.28C84.0955 17.28 85.3915 17.832 86.3195 18.936C87.2635 20.04 87.7355 21.552 87.7355 23.472V23.832C87.7355 23.992 87.6795 24.12 87.5675 24.216C87.4715 24.312 87.3435 24.36 87.1835 24.36H78.6395V24.6C78.6715 25.352 78.8395 26.056 79.1435 26.712C79.4635 27.352 79.9035 27.872 80.4635 28.272C81.0235 28.656 81.6795 28.848 82.4315 28.848C83.3115 28.848 84.0235 28.68 84.5675 28.344C85.1275 27.992 85.5275 27.64 85.7675 27.288C85.9115 27.096 86.0155 26.976 86.0795 26.928C86.1595 26.88 86.2955 26.856 86.4875 26.856H86.8715C87.0155 26.856 87.1355 26.896 87.2315 26.976C87.3275 27.056 87.3755 27.16 87.3755 27.288C87.3755 27.624 87.1595 28.032 86.7275 28.512C86.3115 28.976 85.7275 29.384 84.9755 29.736C84.2235 30.072 83.3755 30.24 82.4315 30.24ZM86.2715 23.016V22.92C86.2715 21.688 85.9195 20.672 85.2155 19.872C84.5275 19.072 83.5995 18.672 82.4315 18.672C81.2635 18.672 80.3355 19.072 79.6475 19.872C78.9755 20.672 78.6395 21.688 78.6395 22.92V23.016H86.2715ZM95.629 30.24C93.965 30.24 92.677 29.76 91.765 28.8C90.853 27.824 90.373 26.464 90.325 24.72L90.301 23.76L90.325 22.8C90.373 21.056 90.853 19.704 91.765 18.744C92.677 17.768 93.965 17.28 95.629 17.28C96.685 17.28 97.581 17.472 98.317 17.856C99.069 18.224 99.629 18.704 99.997 19.296C100.365 19.872 100.565 20.472 100.597 21.096C100.613 21.24 100.565 21.368 100.453 21.48C100.341 21.576 100.213 21.624 100.069 21.624H99.733C99.573 21.624 99.453 21.592 99.373 21.528C99.309 21.448 99.237 21.312 99.157 21.12C98.837 20.24 98.389 19.616 97.813 19.248C97.237 18.864 96.509 18.672 95.629 18.672C94.477 18.672 93.557 19.024 92.869 19.728C92.197 20.416 91.837 21.48 91.789 22.92L91.765 23.76L91.789 24.6C91.837 26.04 92.197 27.112 92.869 27.816C93.557 28.504 94.477 28.848 95.629 28.848C96.509 28.848 97.237 28.664 97.813 28.296C98.389 27.912 98.837 27.28 99.157 26.4C99.237 26.208 99.309 26.08 99.373 26.016C99.453 25.936 99.573 25.896 99.733 25.896H100.069C100.213 25.896 100.341 25.952 100.453 26.064C100.565 26.16 100.613 26.28 100.597 26.424C100.565 27.048 100.365 27.656 99.997 28.248C99.629 28.824 99.069 29.304 98.317 29.688C97.581 30.056 96.685 30.24 95.629 30.24ZM107.968 30C106.784 30 105.944 29.648 105.448 28.944C104.952 28.224 104.704 27.24 104.704 25.992V18.912H102.832C102.672 18.912 102.544 18.864 102.448 18.768C102.352 18.672 102.304 18.544 102.304 18.384V18.048C102.304 17.888 102.352 17.76 102.448 17.664C102.544 17.568 102.672 17.52 102.832 17.52H104.704V13.488C104.704 13.328 104.752 13.2 104.848 13.104C104.944 13.008 105.072 12.96 105.232 12.96H105.64C105.8 12.96 105.928 13.008 106.024 13.104C106.12 13.2 106.168 13.328 106.168 13.488V17.52H109.144C109.304 17.52 109.432 17.568 109.528 17.664C109.624 17.76 109.672 17.888 109.672 18.048V18.384C109.672 18.544 109.624 18.672 109.528 18.768C109.432 18.864 109.304 18.912 109.144 18.912H106.168V25.896C106.168 26.792 106.312 27.472 106.6 27.936C106.904 28.384 107.4 28.608 108.088 28.608H109.384C109.544 28.608 109.672 28.656 109.768 28.752C109.864 28.848 109.912 28.976 109.912 29.136V29.472C109.912 29.632 109.864 29.76 109.768 29.856C109.672 29.952 109.544 30 109.384 30H107.968ZM116.353 30.24C115.313 30.24 114.433 30.064 113.713 29.712C113.009 29.36 112.473 28.96 112.105 28.512C111.753 28.064 111.577 27.704 111.577 27.432C111.577 27.288 111.633 27.176 111.745 27.096C111.857 27 111.977 26.952 112.105 26.952H112.465C112.577 26.952 112.665 26.976 112.729 27.024C112.809 27.056 112.897 27.136 112.993 27.264C113.345 27.76 113.769 28.152 114.265 28.44C114.777 28.712 115.473 28.848 116.353 28.848C117.345 28.848 118.145 28.664 118.753 28.296C119.361 27.912 119.665 27.368 119.665 26.664C119.665 26.232 119.537 25.88 119.281 25.608C119.041 25.336 118.641 25.104 118.081 24.912C117.537 24.704 116.721 24.472 115.633 24.216C114.209 23.896 113.233 23.456 112.705 22.896C112.193 22.336 111.937 21.624 111.937 20.76C111.937 20.168 112.097 19.608 112.417 19.08C112.753 18.552 113.241 18.12 113.881 17.784C114.537 17.448 115.321 17.28 116.233 17.28C117.193 17.28 118.001 17.448 118.657 17.784C119.329 18.104 119.825 18.48 120.145 18.912C120.481 19.344 120.649 19.696 120.649 19.968C120.649 20.112 120.593 20.232 120.481 20.328C120.385 20.408 120.265 20.448 120.121 20.448H119.761C119.537 20.448 119.361 20.344 119.233 20.136C118.913 19.656 118.545 19.296 118.129 19.056C117.729 18.8 117.097 18.672 116.233 18.672C115.305 18.672 114.601 18.864 114.121 19.248C113.641 19.632 113.401 20.136 113.401 20.76C113.401 21.144 113.497 21.464 113.689 21.72C113.881 21.976 114.241 22.216 114.769 22.44C115.297 22.648 116.065 22.864 117.073 23.088C118.561 23.424 119.609 23.872 120.217 24.432C120.825 24.992 121.129 25.736 121.129 26.664C121.129 27.32 120.945 27.92 120.577 28.464C120.209 29.008 119.665 29.44 118.945 29.76C118.225 30.08 117.361 30.24 116.353 30.24Z" fill="black"/>
<rect x="1" y="1" width="154" height="42" stroke="black" stroke-width="2"/>
</svg>
