<svg width="156" height="44" viewBox="0 0 156 44" fill="none" xmlns="http://www.w3.org/2000/svg">
<path d="M13.6279 30C13.4679 30 13.3399 29.952 13.2439 29.856C13.1479 29.76 13.0999 29.632 13.0999 29.472V14.64H8.34788C8.18788 14.64 8.05988 14.592 7.96387 14.496C7.86788 14.4 7.81988 14.272 7.81988 14.112V13.752C7.81988 13.592 7.86788 13.464 7.96387 13.368C8.05988 13.256 8.18788 13.2 8.34788 13.2H19.3399C19.5159 13.2 19.6519 13.248 19.7479 13.344C19.8439 13.44 19.8919 13.576 19.8919 13.752V14.112C19.8919 14.272 19.8359 14.4 19.7239 14.496C19.6279 14.592 19.4999 14.64 19.3399 14.64H14.6119V29.472C14.6119 29.632 14.5559 29.76 14.4439 29.856C14.3479 29.952 14.2199 30 14.0599 30H13.6279ZM24.7401 30.24C23.2201 30.24 21.9961 29.744 21.0681 28.752C20.1401 27.744 19.6121 26.4 19.4841 24.72L19.4601 23.76L19.4841 22.8C19.6121 21.136 20.1321 19.8 21.0441 18.792C21.9721 17.784 23.2041 17.28 24.7401 17.28C26.4041 17.28 27.7001 17.832 28.6281 18.936C29.5721 20.04 30.0441 21.552 30.0441 23.472V23.832C30.0441 23.992 29.9881 24.12 29.8761 24.216C29.7801 24.312 29.6521 24.36 29.4921 24.36H20.9481V24.6C20.9801 25.352 21.1481 26.056 21.4521 26.712C21.7721 27.352 22.2121 27.872 22.7721 28.272C23.3321 28.656 23.9881 28.848 24.7401 28.848C25.6201 28.848 26.3321 28.68 26.8761 28.344C27.4361 27.992 27.8361 27.64 28.0761 27.288C28.2201 27.096 28.3241 26.976 28.3881 26.928C28.4681 26.88 28.6041 26.856 28.7961 26.856H29.1801C29.3241 26.856 29.4441 26.896 29.5401 26.976C29.6361 27.056 29.6841 27.16 29.6841 27.288C29.6841 27.624 29.4681 28.032 29.0361 28.512C28.6201 28.976 28.0361 29.384 27.2841 29.736C26.5321 30.072 25.6841 30.24 24.7401 30.24ZM28.5801 23.016V22.92C28.5801 21.688 28.2281 20.672 27.5241 19.872C26.8361 19.072 25.9081 18.672 24.7401 18.672C23.5721 18.672 22.6441 19.072 21.9561 19.872C21.2841 20.672 20.9481 21.688 20.9481 22.92V23.016H28.5801ZM37.9376 30.24C36.2736 30.24 34.9856 29.76 34.0736 28.8C33.1616 27.824 32.6816 26.464 32.6336 24.72L32.6096 23.76L32.6336 22.8C32.6816 21.056 33.1616 19.704 34.0736 18.744C34.9856 17.768 36.2736 17.28 37.9376 17.28C38.9936 17.28 39.8896 17.472 40.6256 17.856C41.3776 18.224 41.9376 18.704 42.3056 19.296C42.6736 19.872 42.8736 20.472 42.9056 21.096C42.9216 21.24 42.8736 21.368 42.7616 21.48C42.6496 21.576 42.5216 21.624 42.3776 21.624H42.0416C41.8816 21.624 41.7616 21.592 41.6816 21.528C41.6176 21.448 41.5456 21.312 41.4656 21.12C41.1456 20.24 40.6976 19.616 40.1216 19.248C39.5456 18.864 38.8176 18.672 37.9376 18.672C36.7856 18.672 35.8656 19.024 35.1776 19.728C34.5056 20.416 34.1456 21.48 34.0976 22.92L34.0736 23.76L34.0976 24.6C34.1456 26.04 34.5056 27.112 35.1776 27.816C35.8656 28.504 36.7856 28.848 37.9376 28.848C38.8176 28.848 39.5456 28.664 40.1216 28.296C40.6976 27.912 41.1456 27.28 41.4656 26.4C41.5456 26.208 41.6176 26.08 41.6816 26.016C41.7616 25.936 41.8816 25.896 42.0416 25.896H42.3776C42.5216 25.896 42.6496 25.952 42.7616 26.064C42.8736 26.16 42.9216 26.28 42.9056 26.424C42.8736 27.048 42.6736 27.656 42.3056 28.248C41.9376 28.824 41.3776 29.304 40.6256 29.688C39.8896 30.056 38.9936 30.24 37.9376 30.24ZM46.6288 30C46.4688 30 46.3408 29.952 46.2448 29.856C46.1488 29.76 46.1008 29.632 46.1008 29.472V13.488C46.1008 13.328 46.1488 13.2 46.2448 13.104C46.3408 13.008 46.4688 12.96 46.6288 12.96H47.0368C47.1968 12.96 47.3248 13.008 47.4208 13.104C47.5168 13.2 47.5648 13.328 47.5648 13.488V19.176C48.0448 18.552 48.5888 18.08 49.1968 17.76C49.8208 17.44 50.6208 17.28 51.5968 17.28C53.1648 17.28 54.3728 17.784 55.2208 18.792C56.0688 19.784 56.4928 21.072 56.4928 22.656V29.472C56.4928 29.632 56.4448 29.76 56.3488 29.856C56.2528 29.952 56.1248 30 55.9648 30H55.5568C55.3968 30 55.2688 29.952 55.1728 29.856C55.0768 29.76 55.0288 29.632 55.0288 29.472V22.776C55.0288 21.48 54.7088 20.472 54.0688 19.752C53.4448 19.032 52.5408 18.672 51.3568 18.672C50.2048 18.672 49.2848 19.04 48.5968 19.776C47.9088 20.496 47.5648 21.496 47.5648 22.776V29.472C47.5648 29.632 47.5168 29.76 47.4208 29.856C47.3248 29.952 47.1968 30 47.0368 30H46.6288ZM60.7845 30C60.6245 30 60.4965 29.952 60.4005 29.856C60.3045 29.76 60.2565 29.632 60.2565 29.472V18.048C60.2565 17.888 60.3045 17.76 60.4005 17.664C60.4965 17.568 60.6245 17.52 60.7845 17.52H61.1925C61.3525 17.52 61.4805 17.568 61.5765 17.664C61.6725 17.76 61.7205 17.888 61.7205 18.048V19.176C62.2005 18.552 62.7445 18.08 63.3525 17.76C63.9765 17.44 64.7765 17.28 65.7525 17.28C67.3205 17.28 68.5285 17.784 69.3765 18.792C70.2245 19.784 70.6485 21.072 70.6485 22.656V29.472C70.6485 29.632 70.6005 29.76 70.5045 29.856C70.4085 29.952 70.2805 30 70.1205 30H69.7125C69.5525 30 69.4245 29.952 69.3285 29.856C69.2325 29.76 69.1845 29.632 69.1845 29.472V22.776C69.1845 21.48 68.8645 20.472 68.2245 19.752C67.6005 19.032 66.6965 18.672 65.5125 18.672C64.3605 18.672 63.4405 19.04 62.7525 19.776C62.0645 20.496 61.7205 21.496 61.7205 22.776V29.472C61.7205 29.632 61.6725 29.76 61.5765 29.856C61.4805 29.952 61.3525 30 61.1925 30H60.7845ZM79.1648 30.24C77.5008 30.24 76.2048 29.736 75.2768 28.728C74.3648 27.704 73.8848 26.384 73.8368 24.768L73.8128 23.76L73.8368 22.752C73.8848 21.136 74.3648 19.824 75.2768 18.816C76.2048 17.792 77.5008 17.28 79.1648 17.28C80.8288 17.28 82.1168 17.792 83.0288 18.816C83.9568 19.824 84.4448 21.136 84.4928 22.752C84.5088 22.912 84.5168 23.248 84.5168 23.76C84.5168 24.272 84.5088 24.608 84.4928 24.768C84.4448 26.384 83.9568 27.704 83.0288 28.728C82.1168 29.736 80.8288 30.24 79.1648 30.24ZM79.1648 28.848C80.3008 28.848 81.2128 28.488 81.9008 27.768C82.6048 27.032 82.9808 25.992 83.0288 24.648C83.0448 24.488 83.0528 24.192 83.0528 23.76C83.0528 23.328 83.0448 23.032 83.0288 22.872C82.9808 21.528 82.6048 20.496 81.9008 19.776C81.2128 19.04 80.3008 18.672 79.1648 18.672C78.0288 18.672 77.1088 19.04 76.4048 19.776C75.7168 20.496 75.3488 21.528 75.3008 22.872L75.2768 23.76L75.3008 24.648C75.3488 25.992 75.7168 27.032 76.4048 27.768C77.1088 28.488 78.0288 28.848 79.1648 28.848ZM88.3476 30C88.1876 30 88.0596 29.952 87.9636 29.856C87.8676 29.76 87.8196 29.632 87.8196 29.472V13.488C87.8196 13.328 87.8676 13.2 87.9636 13.104C88.0596 13.008 88.1876 12.96 88.3476 12.96H88.7556C88.9156 12.96 89.0436 13.008 89.1396 13.104C89.2356 13.2 89.2836 13.328 89.2836 13.488V29.472C89.2836 29.632 89.2356 29.76 89.1396 29.856C89.0436 29.952 88.9156 30 88.7556 30H88.3476ZM97.9382 30.24C96.2742 30.24 94.9782 29.736 94.0502 28.728C93.1382 27.704 92.6582 26.384 92.6102 24.768L92.5862 23.76L92.6102 22.752C92.6582 21.136 93.1382 19.824 94.0502 18.816C94.9782 17.792 96.2742 17.28 97.9382 17.28C99.6022 17.28 100.89 17.792 101.802 18.816C102.73 19.824 103.218 21.136 103.266 22.752C103.282 22.912 103.29 23.248 103.29 23.76C103.29 24.272 103.282 24.608 103.266 24.768C103.218 26.384 102.73 27.704 101.802 28.728C100.89 29.736 99.6022 30.24 97.9382 30.24ZM97.9382 28.848C99.0742 28.848 99.9862 28.488 100.674 27.768C101.378 27.032 101.754 25.992 101.802 24.648C101.818 24.488 101.826 24.192 101.826 23.76C101.826 23.328 101.818 23.032 101.802 22.872C101.754 21.528 101.378 20.496 100.674 19.776C99.9862 19.04 99.0742 18.672 97.9382 18.672C96.8022 18.672 95.8822 19.04 95.1782 19.776C94.4902 20.496 94.1222 21.528 94.0742 22.872L94.0502 23.76L94.0742 24.648C94.1222 25.992 94.4902 27.032 95.1782 27.768C95.8822 28.488 96.8022 28.848 97.9382 28.848ZM111.225 35.28C109.977 35.28 108.977 35.064 108.225 34.632C107.473 34.2 106.945 33.704 106.641 33.144C106.353 32.6 106.209 32.12 106.209 31.704C106.209 31.56 106.257 31.44 106.353 31.344C106.465 31.248 106.593 31.2 106.737 31.2H107.073C107.217 31.2 107.329 31.232 107.409 31.296C107.505 31.376 107.585 31.512 107.649 31.704C108.145 33.16 109.297 33.888 111.105 33.888C112.481 33.888 113.497 33.6 114.153 33.024C114.809 32.464 115.137 31.456 115.137 30V28.344C114.209 29.608 112.865 30.24 111.105 30.24C109.377 30.24 108.097 29.68 107.265 28.56C106.449 27.424 106.017 26.048 105.969 24.432L105.945 23.76L105.969 23.088C106.017 21.472 106.449 20.104 107.265 18.984C108.097 17.848 109.377 17.28 111.105 17.28C112.849 17.28 114.193 17.912 115.137 19.176V18.072C115.137 17.912 115.185 17.784 115.281 17.688C115.377 17.576 115.505 17.52 115.665 17.52H116.049C116.209 17.52 116.337 17.576 116.433 17.688C116.545 17.784 116.601 17.912 116.601 18.072V29.76C116.601 31.472 116.201 32.816 115.401 33.792C114.601 34.784 113.209 35.28 111.225 35.28ZM111.249 28.848C112.513 28.848 113.465 28.432 114.105 27.6C114.745 26.752 115.089 25.76 115.137 24.624C115.153 24.464 115.161 24.176 115.161 23.76C115.161 23.344 115.153 23.056 115.137 22.896C115.089 21.76 114.745 20.776 114.105 19.944C113.465 19.096 112.513 18.672 111.249 18.672C109.953 18.672 109.001 19.088 108.393 19.92C107.801 20.736 107.481 21.792 107.433 23.088L107.409 23.76L107.433 24.432C107.481 25.728 107.801 26.792 108.393 27.624C109.001 28.44 109.953 28.848 111.249 28.848ZM120.778 14.952C120.618 14.952 120.49 14.904 120.394 14.808C120.298 14.712 120.25 14.584 120.25 14.424V13.512C120.25 13.352 120.298 13.224 120.394 13.128C120.49 13.016 120.618 12.96 120.778 12.96H121.69C121.85 12.96 121.978 13.016 122.074 13.128C122.186 13.224 122.242 13.352 122.242 13.512V14.424C122.242 14.584 122.186 14.712 122.074 14.808C121.978 14.904 121.85 14.952 121.69 14.952H120.778ZM121.042 30C120.882 30 120.754 29.952 120.658 29.856C120.562 29.76 120.514 29.632 120.514 29.472V18.048C120.514 17.888 120.562 17.76 120.658 17.664C120.754 17.568 120.882 17.52 121.042 17.52H121.45C121.61 17.52 121.738 17.568 121.834 17.664C121.93 17.76 121.978 17.888 121.978 18.048V29.472C121.978 29.632 121.93 29.76 121.834 29.856C121.738 29.952 121.61 30 121.45 30H121.042ZM130.49 30.24C128.97 30.24 127.746 29.744 126.818 28.752C125.89 27.744 125.362 26.4 125.234 24.72L125.21 23.76L125.234 22.8C125.362 21.136 125.882 19.8 126.794 18.792C127.722 17.784 128.954 17.28 130.49 17.28C132.154 17.28 133.45 17.832 134.378 18.936C135.322 20.04 135.794 21.552 135.794 23.472V23.832C135.794 23.992 135.738 24.12 135.626 24.216C135.53 24.312 135.402 24.36 135.242 24.36H126.698V24.6C126.73 25.352 126.898 26.056 127.202 26.712C127.522 27.352 127.962 27.872 128.522 28.272C129.082 28.656 129.738 28.848 130.49 28.848C131.37 28.848 132.082 28.68 132.626 28.344C133.186 27.992 133.586 27.64 133.826 27.288C133.97 27.096 134.074 26.976 134.138 26.928C134.218 26.88 134.354 26.856 134.546 26.856H134.93C135.074 26.856 135.194 26.896 135.29 26.976C135.386 27.056 135.434 27.16 135.434 27.288C135.434 27.624 135.218 28.032 134.786 28.512C134.37 28.976 133.786 29.384 133.034 29.736C132.282 30.072 131.434 30.24 130.49 30.24ZM134.33 23.016V22.92C134.33 21.688 133.978 20.672 133.274 19.872C132.586 19.072 131.658 18.672 130.49 18.672C129.322 18.672 128.394 19.072 127.706 19.872C127.034 20.672 126.698 21.688 126.698 22.92V23.016H134.33ZM142.92 30.24C141.88 30.24 141 30.064 140.28 29.712C139.576 29.36 139.04 28.96 138.672 28.512C138.32 28.064 138.144 27.704 138.144 27.432C138.144 27.288 138.2 27.176 138.312 27.096C138.424 27 138.544 26.952 138.672 26.952H139.032C139.144 26.952 139.232 26.976 139.296 27.024C139.376 27.056 139.464 27.136 139.56 27.264C139.912 27.76 140.336 28.152 140.832 28.44C141.344 28.712 142.04 28.848 142.92 28.848C143.912 28.848 144.712 28.664 145.32 28.296C145.928 27.912 146.232 27.368 146.232 26.664C146.232 26.232 146.104 25.88 145.848 25.608C145.608 25.336 145.208 25.104 144.648 24.912C144.104 24.704 143.288 24.472 142.2 24.216C140.776 23.896 139.8 23.456 139.272 22.896C138.76 22.336 138.504 21.624 138.504 20.76C138.504 20.168 138.664 19.608 138.984 19.08C139.32 18.552 139.808 18.12 140.448 17.784C141.104 17.448 141.888 17.28 142.8 17.28C143.76 17.28 144.568 17.448 145.224 17.784C145.896 18.104 146.392 18.48 146.712 18.912C147.048 19.344 147.216 19.696 147.216 19.968C147.216 20.112 147.16 20.232 147.048 20.328C146.952 20.408 146.832 20.448 146.688 20.448H146.328C146.104 20.448 145.928 20.344 145.8 20.136C145.48 19.656 145.112 19.296 144.696 19.056C144.296 18.8 143.664 18.672 142.8 18.672C141.872 18.672 141.168 18.864 140.688 19.248C140.208 19.632 139.968 20.136 139.968 20.76C139.968 21.144 140.064 21.464 140.256 21.72C140.448 21.976 140.808 22.216 141.336 22.44C141.864 22.648 142.632 22.864 143.64 23.088C145.128 23.424 146.176 23.872 146.784 24.432C147.392 24.992 147.696 25.736 147.696 26.664C147.696 27.32 147.512 27.92 147.144 28.464C146.776 29.008 146.232 29.44 145.512 29.76C144.792 30.08 143.928 30.24 142.92 30.24Z" fill="black"/>
<rect x="1" y="1" width="154" height="42" stroke="black" stroke-width="2"/>
</svg>
