<svg width="35" height="35" viewBox="0 0 35 35" fill="none" xmlns="http://www.w3.org/2000/svg">
<path fill-rule="evenodd" clip-rule="evenodd" d="M15.7849 0.0830293C16.3494 0.028094 16.9215 0 17.5 0C18.0785 0 18.6506 0.028094 19.2151 0.0830292C19.6077 0.121241 19.8951 0.47051 19.8568 0.863144C19.8186 1.25578 19.4694 1.54309 19.0767 1.50488C18.5582 1.45442 18.0322 1.42857 17.5 1.42857C16.9678 1.42857 16.4418 1.45442 15.9233 1.50488C15.5306 1.54309 15.1814 1.25578 15.1431 0.863144C15.1049 0.47051 15.3923 0.121241 15.7849 0.0830293ZM21.6907 1.22582C21.8051 0.848283 22.2039 0.634952 22.5814 0.749336C23.6886 1.08477 24.7492 1.5269 25.7514 2.06368C26.0991 2.24994 26.23 2.68284 26.0438 3.03059C25.8575 3.37834 25.4246 3.50925 25.0769 3.32299C24.1567 2.83015 23.1832 2.42436 22.1672 2.11654C21.7896 2.00215 21.5763 1.60337 21.6907 1.22582ZM13.3093 1.22583C13.4237 1.60337 13.2104 2.00215 12.8328 2.11654C11.8168 2.42436 10.8433 2.83015 9.92312 3.32299C9.57537 3.50925 9.14247 3.37834 8.95621 3.03059C8.76995 2.68284 8.90086 2.24995 9.24861 2.06369C10.2508 1.5269 11.3114 1.08477 12.4186 0.749336C12.7961 0.634952 13.1949 0.848283 13.3093 1.22583ZM27.597 4.07052C27.8474 3.76572 28.2976 3.72164 28.6024 3.97207C29.4878 4.69954 30.3005 5.51223 31.0279 6.39764C31.2784 6.70245 31.2343 7.15255 30.9295 7.40299C30.6247 7.65342 30.1746 7.60934 29.9241 7.30454C29.2557 6.49102 28.509 5.74427 27.6955 5.07587C27.3907 4.82543 27.3466 4.37533 27.597 4.07052ZM7.40299 4.07052C7.65342 4.37533 7.60934 4.82543 7.30454 5.07587C6.49102 5.74427 5.74427 6.49102 5.07587 7.30454C4.82543 7.60934 4.37533 7.65342 4.07052 7.40299C3.76572 7.15256 3.72164 6.70245 3.97207 6.39764C4.69954 5.51224 5.51223 4.69954 6.39764 3.97208C6.70245 3.72164 7.15255 3.76572 7.40299 4.07052ZM31.9694 8.95621C32.3172 8.76995 32.7501 8.90086 32.9363 9.24861C33.4731 10.2508 33.9152 11.3114 34.2507 12.4186C34.3651 12.7961 34.1517 13.1949 33.7742 13.3093C33.3966 13.4237 32.9978 13.2104 32.8835 12.8328C32.5756 11.8168 32.1698 10.8433 31.677 9.92312C31.4907 9.57537 31.6217 9.14247 31.9694 8.95621ZM3.03059 8.95621C3.37834 9.14247 3.50925 9.57537 3.32299 9.92312C2.83015 10.8433 2.42436 11.8168 2.11654 12.8328C2.00215 13.2104 1.60337 13.4237 1.22582 13.3093C0.848283 13.1949 0.634952 12.7961 0.749336 12.4186C1.08477 11.3115 1.5269 10.2508 2.06368 9.24861C2.24994 8.90086 2.68284 8.76995 3.03059 8.95621ZM34.1369 15.1431C34.5295 15.1049 34.8788 15.3923 34.917 15.7849C34.9719 16.3494 35 16.9215 35 17.5C35 18.0785 34.9719 18.6506 34.917 19.2151C34.8788 19.6077 34.5295 19.8951 34.1369 19.8568C33.7442 19.8186 33.4569 19.4694 33.4951 19.0767C33.5456 18.5582 33.5714 18.0322 33.5714 17.5C33.5714 16.9678 33.5456 16.4418 33.4951 15.9233C33.4569 15.5306 33.7442 15.1814 34.1369 15.1431ZM0.863144 15.1432C1.25578 15.1814 1.54309 15.5306 1.50488 15.9233C1.45442 16.4418 1.42857 16.9678 1.42857 17.5C1.42857 18.0322 1.45442 18.5582 1.50488 19.0767C1.54309 19.4694 1.25578 19.8186 0.863144 19.8569C0.47051 19.8951 0.121241 19.6077 0.0830293 19.2151C0.028094 18.6506 0 18.0785 0 17.5C0 16.9215 0.028094 16.3494 0.0830292 15.7849C0.121241 15.3923 0.47051 15.1049 0.863144 15.1432ZM33.7742 21.6907C34.1517 21.8051 34.3651 22.2039 34.2507 22.5814C33.9152 23.6886 33.4731 24.7492 32.9363 25.7514C32.7501 26.0991 32.3172 26.23 31.9694 26.0438C31.6217 25.8575 31.4907 25.4246 31.677 25.0769C32.1698 24.1567 32.5756 23.1832 32.8835 22.1672C32.9978 21.7896 33.3966 21.5763 33.7742 21.6907ZM1.22583 21.6907C1.60337 21.5763 2.00215 21.7896 2.11654 22.1672C2.42436 23.1832 2.83015 24.1567 3.32299 25.0769C3.50925 25.4246 3.37834 25.8575 3.03059 26.0438C2.68284 26.2301 2.24995 26.0991 2.06369 25.7514C1.5269 24.7492 1.08477 23.6886 0.749336 22.5814C0.634952 22.2039 0.848283 21.8051 1.22583 21.6907ZM4.07052 27.597C4.37533 27.3466 4.82543 27.3907 5.07587 27.6955C5.74427 28.509 6.49102 29.2557 7.30454 29.9241C7.60934 30.1746 7.65342 30.6247 7.40299 30.9295C7.15256 31.2343 6.70245 31.2784 6.39764 31.0279C5.51224 30.3005 4.69954 29.4878 3.97208 28.6024C3.72164 28.2976 3.76572 27.8474 4.07052 27.597ZM30.9295 27.597C31.2343 27.8474 31.2784 28.2976 31.0279 28.6024C30.3005 29.4878 29.4878 30.3005 28.6024 31.0279C28.2976 31.2784 27.8474 31.2343 27.597 30.9295C27.3466 30.6247 27.3907 30.1746 27.6955 29.9241C28.509 29.2557 29.2557 28.509 29.9241 27.6955C30.1746 27.3907 30.6247 27.3466 30.9295 27.597ZM8.95621 31.9694C9.14247 31.6217 9.57537 31.4907 9.92312 31.677C10.8433 32.1698 11.8168 32.5756 12.8328 32.8835C13.2104 32.9978 13.4237 33.3966 13.3093 33.7742C13.1949 34.1517 12.7961 34.3651 12.4186 34.2507C11.3115 33.9152 10.2508 33.4731 9.24861 32.9363C8.90086 32.7501 8.76995 32.3172 8.95621 31.9694ZM26.0438 31.9694C26.2301 32.3172 26.0991 32.7501 25.7514 32.9363C24.7492 33.4731 23.6886 33.9152 22.5814 34.2507C22.2039 34.3651 21.8051 34.1517 21.6907 33.7742C21.5763 33.3966 21.7896 32.9978 22.1672 32.8835C23.1832 32.5756 24.1567 32.1698 25.0769 31.677C25.4246 31.4907 25.8575 31.6217 26.0438 31.9694ZM15.1432 34.1369C15.1814 33.7442 15.5306 33.4569 15.9233 33.4951C16.4418 33.5456 16.9678 33.5714 17.5 33.5714C18.0322 33.5714 18.5582 33.5456 19.0767 33.4951C19.4694 33.4569 19.8186 33.7442 19.8569 34.1369C19.8951 34.5295 19.6077 34.8788 19.2151 34.917C18.6506 34.9719 18.0785 35 17.5 35C16.9215 35 16.3494 34.9719 15.7849 34.917C15.3923 34.8788 15.1049 34.5295 15.1432 34.1369Z" fill="black"/>
<path d="M17.7058 25.3571C17.8581 25.3571 17.98 25.3114 18.0715 25.22C18.1629 25.1286 18.2086 25.0067 18.2086 24.8543L18.2086 9.88286C18.2086 9.73048 18.1629 9.60858 18.0715 9.51715C17.98 9.41048 17.8581 9.35715 17.7058 9.35715L12.1515 9.35715C10.521 9.35715 9.241 9.76858 8.31148 10.5914C7.36671 11.3991 6.89433 12.5648 6.89433 14.0886C6.89433 15.6124 7.36671 16.7857 8.31148 17.6086C9.241 18.4162 10.521 18.82 12.1515 18.82L16.7686 18.82L16.7686 24.8543C16.7686 25.0067 16.822 25.1286 16.9286 25.22C17.02 25.3114 17.142 25.3571 17.2943 25.3571L17.7058 25.3571ZM12.2658 17.4486C10.9553 17.4486 9.97243 17.1667 9.31719 16.6029C8.66195 16.0238 8.33433 15.1857 8.33433 14.0886C8.33433 12.9914 8.66195 12.161 9.31719 11.5971C9.97243 11.0181 10.9553 10.7286 12.2658 10.7286L16.7686 10.7286L16.7686 17.4486L12.2658 17.4486Z" fill="black"/>
<path d="M17.2942 25.3571C17.1419 25.3571 17.02 25.3114 16.9285 25.22C16.8371 25.1286 16.7914 25.0067 16.7914 24.8543V9.88286C16.7914 9.73048 16.8371 9.60858 16.9285 9.51715C17.02 9.41048 17.1419 9.35715 17.2942 9.35715H17.7057C17.8733 9.35715 18.0028 9.40286 18.0942 9.49429C18.1857 9.58572 18.2314 9.71524 18.2314 9.88286V15.8257L25.1571 9.7C25.279 9.60858 25.4009 9.53239 25.5228 9.47143C25.66 9.39524 25.8276 9.35715 26.0257 9.35715H26.3914C26.5133 9.35715 26.62 9.40286 26.7114 9.49429C26.8028 9.58572 26.8485 9.69239 26.8485 9.81429C26.8485 9.9362 26.8104 10.0352 26.7342 10.1114L18.9857 17.0143L27.2142 24.58C27.3057 24.6714 27.3514 24.7781 27.3514 24.9C27.3514 25.0219 27.3057 25.1286 27.2142 25.22C27.1228 25.3114 27.0161 25.3571 26.8942 25.3571H26.5057C26.3076 25.3571 26.14 25.3267 26.0028 25.2657C25.8809 25.1895 25.759 25.1057 25.6371 25.0143L18.2314 18.2486V24.8543C18.2314 25.0067 18.178 25.1286 18.0714 25.22C17.98 25.3114 17.858 25.3571 17.7057 25.3571H17.2942Z" fill="black"/>
</svg>
