<svg width="555" height="555" viewBox="0 0 555 555" fill="none" xmlns="http://www.w3.org/2000/svg">
<path d="M372.199 145.096L527.875 234.566C545.092 244.461 546.145 268.685 529.844 279.882L206.847 501.754C198.059 507.791 186.486 508.127 177.31 502.613L23.0145 409.888C6.14405 399.75 5.40028 375.789 21.6139 364.768L343.231 146.151C351.851 140.291 363.126 139.881 372.199 145.096Z" fill="#E2E2E2" stroke="#E2E2E2" stroke-width="14"/>
<path d="M374.22 64.0772L529.896 153.548C547.113 163.443 548.166 187.666 531.865 198.864L208.868 420.735C200.08 426.772 188.507 427.109 179.331 421.595L25.0355 328.87C8.16504 318.731 7.42128 294.77 23.6349 283.749L345.252 65.1323C353.872 59.273 365.147 58.8623 374.22 64.0772Z" fill="white" stroke="#535353" stroke-width="14"/>
<path d="M372.908 54.0863L528.583 143.557C545.801 153.452 546.853 177.675 530.552 188.873L207.555 410.744C198.767 416.781 187.194 417.118 178.019 411.604L23.7229 318.879C6.85248 308.74 6.10872 284.779 22.3223 273.758L343.939 55.1414C352.559 49.2821 363.834 48.8714 372.908 54.0863Z" fill="white" stroke="#535353" stroke-width="14"/>
<path d="M483.233 128.667C487.162 122.49 485.177 114.34 478.845 110.651L424.22 78.8232C418.341 75.3977 410.768 77.0915 406.915 82.6937V82.6937C402.703 88.8171 404.563 97.1692 410.976 100.934L465.497 132.937C471.581 136.508 479.451 134.614 483.233 128.667V128.667Z" fill="#535353"/>
</svg>
