<svg width="201" height="201" viewBox="0 0 201 201" fill="none" xmlns="http://www.w3.org/2000/svg">
<g clip-path="url(#clip0)">
<path d="M100.878 200.177L19.2012 184.099L1 39.3394H201L182.779 184.076L100.878 200.177Z" fill="#264DE4"/>
<path d="M167.181 174.86L182.751 51.1756H101V187.87L167.181 174.86Z" fill="#2965F1"/>
<path d="M42.7246 104.865L44.9687 122.619H100.999V104.865H42.7246Z" fill="#EBEBEB"/>
<path d="M38.2178 68.9302L40.4938 86.6845H101.001V68.9302H38.2178Z" fill="#EBEBEB"/>
<path d="M101 150.974L100.89 150.995L73.0056 145.656L71.223 131.496H46.0889L49.5967 159.373L100.885 169.469L101 169.446V150.974Z" fill="#EBEBEB"/>
<path d="M48.0674 0L78.3926 0V8.99232H60.7489V17.9846H78.3926V26.977H48.0674V0Z" fill="black"/>
<path d="M84.457 0L114.782 0V7.8194H97.1385V9.38329H114.782V27.3679H84.457V19.1575H102.101V17.5937H84.457V0Z" fill="black"/>
<path d="M120.85 0L151.175 0V7.81941H133.531V9.38329H151.175V27.3679H120.85V19.1575H138.493V17.5937H120.85V0Z" fill="black"/>
<path d="M159.114 104.865L163.634 68.9299H100.914V86.6843H136.195L133.917 104.865H100.914V122.619H131.745L128.839 145.645L100.914 150.989V169.46L152.243 159.373L152.62 156.373L158.503 109.632L159.114 104.865Z" fill="white"/>
</g>
<defs>
<clipPath id="clip0">
<rect width="200" height="200" fill="white" transform="translate(0.904297 0.335022)"/>
</clipPath>
</defs>
</svg>
