<svg width="200" height="200" viewBox="0 0 200 200" fill="none" xmlns="http://www.w3.org/2000/svg">
<path d="M100.333 15C53.2051 15 15 53.2049 15 100.333C15 147.462 53.2052 185.667 100.333 185.667C147.462 185.667 185.667 147.462 185.667 100.333C185.667 53.2049 147.462 15 100.333 15ZM33.336 101.223L99.4436 167.331C63.143 166.858 33.809 137.524 33.336 101.223ZM115.331 165.656L35.0111 85.3358C41.8219 55.5489 68.4816 33.3248 100.333 33.3248C122.598 33.3248 142.323 44.1867 154.508 60.8976L145.231 69.0839C135.346 54.9092 118.924 45.6325 100.333 45.6325C76.6632 45.6325 56.5063 60.6675 48.8874 81.7078L118.959 151.779C135.976 145.617 149.063 131.252 153.447 113.462H124.402V100.333H155.034V100.333H167.342V100.333C167.342 132.185 145.118 158.845 115.331 165.656Z" fill="#744C9E"/>
</svg>
