<svg width="201" height="201" viewBox="0 0 201 201" fill="none" xmlns="http://www.w3.org/2000/svg">
<path d="M190.892 91.3627L109.059 9.5351C104.349 4.82163 96.7054 4.82163 91.9899 9.5351L74.9972 26.5278L96.5533 48.0839C101.563 46.3914 107.307 47.5266 111.3 51.5203C115.313 55.5387 116.439 61.3318 114.706 66.3579L135.48 87.1325C140.507 85.4009 146.306 86.5217 150.32 90.5421C155.93 96.1502 155.93 105.24 150.32 110.852C144.708 116.464 135.618 116.464 130.004 110.852C125.784 106.628 124.741 100.43 126.878 95.2309L107.504 75.8568L107.502 126.841C108.87 127.52 110.161 128.423 111.3 129.558C116.91 135.166 116.91 144.255 111.3 149.872C105.688 155.482 96.5944 155.482 90.9905 149.872C85.3804 144.255 85.3804 135.166 90.9905 129.558C92.3765 128.174 93.9806 127.127 95.6916 126.424V74.9643C93.9806 74.2651 92.3786 73.2245 90.9905 71.8302C86.7397 67.5856 85.7176 61.3483 87.8955 56.1289L66.6478 34.8772L10.5366 90.9843C5.82112 95.7019 5.82112 103.346 10.5366 108.059L92.3704 189.889C97.0818 194.602 104.724 194.602 109.441 189.889L190.892 108.44C195.606 103.724 195.606 96.0761 190.892 91.3627Z" fill="#DE4C36"/>
</svg>
