<svg width="200" height="200" viewBox="0 0 200 200" fill="none" xmlns="http://www.w3.org/2000/svg">
<g clip-path="url(#clip0)">
<path d="M196.229 91.0887L108.906 3.77223C103.88 -1.25741 95.7238 -1.25741 90.6919 3.77223L72.5593 21.9048L95.5614 44.9069C100.907 43.1008 107.036 44.3122 111.298 48.5738C115.579 52.8617 116.782 59.0434 114.932 64.4066L137.1 86.5747C142.463 84.727 148.651 85.923 152.935 90.2131C158.921 96.1973 158.921 105.897 152.935 111.885C146.946 117.874 137.247 117.874 131.256 111.885C126.753 107.378 125.64 100.764 127.92 95.2164L107.247 74.5427L107.245 128.947C108.704 129.671 110.082 130.635 111.298 131.846C117.284 137.83 117.284 147.529 111.298 153.522C105.309 159.509 95.6053 159.509 89.6254 153.522C83.639 147.529 83.639 137.83 89.6254 131.846C91.1045 130.369 92.8161 129.252 94.6419 128.502V73.5903C92.8161 72.8442 91.1067 71.7338 89.6254 70.246C85.0895 65.7167 83.9989 59.0609 86.3228 53.4915L63.6499 30.8142L3.77485 90.6849C-1.25698 95.7189 -1.25698 103.876 3.77485 108.905L91.0979 196.224C96.1253 201.254 104.28 201.254 109.314 196.224L196.229 109.311C201.258 104.279 201.258 96.1183 196.229 91.0887Z" fill="#DE4C36"/>
</g>
<defs>
<clipPath id="clip0">
<rect width="200" height="200" fill="white"/>
</clipPath>
</defs>
</svg>
