<svg width="200" height="200" viewBox="0 0 200 200" fill="none" xmlns="http://www.w3.org/2000/svg">
<path fill-rule="evenodd" clip-rule="evenodd" d="M118.617 22.8913L163.425 46.6059C164.686 45.3808 166.16 44.2991 167.832 43.4089C177.125 38.512 188.978 41.4196 194.376 49.9381C199.718 58.4567 196.546 69.3217 187.253 74.2696C185.594 75.1438 183.851 75.7693 182.078 76.1586V123.606C183.832 123.996 185.555 124.618 187.197 125.483C196.546 130.431 199.718 141.296 194.32 149.814C188.978 158.333 177.069 161.24 167.776 156.344C165.926 155.369 164.319 154.155 162.973 152.77L118.439 176.339C119.075 178.103 119.42 179.989 119.42 181.95C119.42 191.744 110.739 199.753 99.999 199.753C89.2592 199.753 80.5784 191.795 80.5784 181.95C80.5784 180.2 80.8526 178.51 81.364 176.913L36.5683 153.205C35.3201 154.406 33.8667 155.468 32.2215 156.344C22.8729 161.24 11.0202 158.333 5.67811 149.814C0.336042 141.296 3.50789 130.431 12.8009 125.483C14.4439 124.617 16.1671 123.995 17.9203 123.605V76.1586C16.1468 75.7693 14.4043 75.1438 12.7452 74.2696C3.45225 69.3727 0.280395 58.4567 5.62246 49.9381C10.9645 41.4196 22.8729 38.512 32.1659 43.4089C33.8286 44.2943 35.2955 45.369 36.5526 46.5859L81.3723 22.8649C80.8556 21.2607 80.5784 19.5616 80.5784 17.8023C80.5784 7.95745 89.2592 0 99.999 0C110.739 0 119.42 7.95745 119.42 17.8023C119.42 19.5713 119.139 21.2794 118.617 22.8913ZM113.949 30.1978L158.863 53.9689C157.475 58.4387 157.984 63.3948 160.709 67.7404C163.443 72.1001 167.897 74.9901 172.84 76.1164V123.623C172.588 123.68 172.338 123.741 172.089 123.807L113.427 30.6726C113.604 30.5174 113.778 30.3591 113.949 30.1978ZM86.583 30.6834L27.9227 123.816C27.6691 123.749 27.414 123.686 27.1577 123.628V76.1164C32.1007 74.9901 36.5546 72.1001 39.2886 67.7404C42.0191 63.3862 42.5253 58.4191 41.1267 53.9424L86.0283 30.178C86.2095 30.3499 86.3945 30.5184 86.583 30.6834ZM105.425 34.9026L164.072 128.015C162.76 129.162 161.603 130.498 160.654 132.012C159.71 133.517 159.032 135.097 158.606 136.705H41.3926C40.9672 135.098 40.2888 133.518 39.3443 132.012C38.3912 130.508 37.2368 129.179 35.9308 128.037L94.589 34.9069C96.3058 35.3612 98.1209 35.6045 99.999 35.6045C101.883 35.6045 103.704 35.3596 105.425 34.9026ZM114.361 169.957L158.984 146.34C158.85 145.955 158.73 145.565 158.625 145.173H41.3678C41.3056 145.403 41.2384 145.633 41.1662 145.861L86.0079 169.594C89.5386 166.235 94.4988 164.148 99.999 164.148C105.695 164.148 110.811 166.386 114.361 169.957Z" fill="#E535AB"/>
</svg>
