<svg width="201" height="200" viewBox="0 0 201 200" fill="none" xmlns="http://www.w3.org/2000/svg">
<g clip-path="url(#clip0)">
<path d="M31.7952 87.4294C25.0274 90.1759 7.1146 102.539 3.66455 106.203C0.081607 109.866 -0.979596 104.142 2.73559 94.641C5.65406 86.9714 13.0857 76.5542 25.5583 67.6256C32.8558 62.4743 48.9119 55.034 58.7305 50.6836C60.7213 49.7675 86.4632 40.381 109.419 35.6877C111.41 35.2296 107.031 38.5494 106.367 40.381C102.917 49.0807 34.0499 86.3987 34.0499 86.3987L31.7952 87.4294Z" fill="#010101"/>
<path d="M128.79 192.4C129.984 198.582 128.923 199.04 121.493 199.841C114.062 200.642 108.622 198.238 106.631 196.636C104.641 195.033 104.243 191.485 106.233 188.28C107.428 186.219 108.622 185.532 109.286 183.014C109.949 180.61 110.48 180.037 111.011 179.122C111.541 178.32 111.674 177.518 111.807 171.91C111.939 166.301 111.807 155.769 112.47 151.305C113.134 146.726 136.09 153.365 136.09 153.365C136.09 153.365 130.649 165.041 129.19 167.903C127.73 170.765 127.863 176.259 127.863 177.404C127.863 178.549 127.332 180.838 126.934 180.953C126.536 181.067 128.261 184.043 127.464 185.761C126.933 187.363 128.658 191.485 128.79 192.4Z" fill="#010101"/>
<path d="M137.549 17.3721C136.753 13.0222 137.549 4.43591 138.61 3.06295C141.928 -0.829476 159.443 -1.28695 163.159 3.29168C164.751 5.35198 164.618 10.1599 164.353 13.2509C164.088 16.3414 163.159 22.9808 163.026 25.1563C162.894 26.7592 143.653 29.2769 139.407 24.927C138.212 23.7828 137.549 17.3721 137.549 17.3721Z" fill="#010101"/>
<path d="M176.559 181.296C184.654 186.333 190.89 187.249 195.003 189.08C199.116 190.912 198.055 194.461 191.155 195.491C185.582 196.407 176.825 194.575 170.986 194.575C165.148 194.575 152.144 195.148 148.694 193.087C144.714 190.684 146.438 186.219 146.438 186.219C147.5 183.701 150.153 178.091 149.357 173.512C148.561 168.934 147.499 166.415 145.509 162.18C143.519 157.944 142.06 147.528 143.918 146.955C145.775 146.382 145.244 146.955 147.633 147.412C150.021 147.87 152.675 148.557 157.85 148.557C163.025 148.557 168.73 147.87 170.721 147.527C172.711 147.184 174.304 146.84 173.64 150.389C172.977 153.937 170.986 160.577 170.853 165.728C170.721 170.879 170.721 176.832 171.119 177.862C171.517 178.892 174.436 180.037 176.559 181.296Z" fill="#010101"/>
<path d="M148.165 28.8194C133.57 39.6947 105.306 42.6705 63.3766 56.6362C52.6284 60.1847 23.9675 70.8307 17.0674 81.9347C40.2881 70.3732 48.9133 86.2846 50.7705 102.654C52.4949 117.993 61.3858 126.007 84.2085 125.548C107.695 125.091 114.86 136.881 121.362 150.733C133.967 97.7315 154.137 87.4294 167.139 78.3863C194.74 59.0399 160.771 24.927 148.165 28.8194Z" fill="#8AC640"/>
<path d="M148.165 28.8194C113.135 39.3507 78.5023 41.9837 37.7669 63.6191C28.0805 68.7704 7.64602 80.446 3.66504 102.769C18.5258 88.5736 52.8928 70.7166 94.9559 59.3838C116.186 53.6599 131.712 49.8826 150.553 43.5865C149.227 36.2597 149.227 33.398 148.165 28.8194Z" fill="#8AC640"/>
<path d="M192.88 91.55C192.88 91.55 190.359 98.9909 185.317 101.395C185.317 101.395 181.602 102.54 174.172 98.9915C172.049 97.9614 170.456 94.4129 170.589 93.2675C170.722 90.5199 172.712 89.261 172.712 89.261C172.712 89.261 174.835 86.17 177.356 86.2847C179.878 86.3987 184.124 86.7421 185.451 85.712C186.644 84.5672 193.146 87.7723 192.88 91.55Z" fill="#010101"/>
<path d="M138.743 19.547C138.743 19.547 138.213 25.3856 137.284 29.0482C137.151 29.7355 133.171 30.0783 130.251 31.109C135.824 44.8455 169.395 44.7308 173.774 37.9772C171.651 36.7184 167.405 34.7722 165.415 34.0854C163.424 33.3981 163.557 33.5127 163.424 30.3076C163.292 27.102 163.026 21.1498 162.76 19.547C162.495 17.9441 141.927 17.9441 138.743 19.547Z" fill="#010101"/>
<path d="M140.071 19.547C140.071 19.547 140.071 22.8667 139.673 26.0718C139.54 27.56 139.408 28.4755 139.142 29.6203C139.01 30.3076 143.654 33.0541 144.981 39.1215C151.35 51.3697 166.079 45.3029 172.182 39.4649C170.059 38.2054 166.609 36.4885 162.629 35.115C160.638 34.4277 161.567 32.94 161.435 29.7349C161.302 26.5298 160.771 21.836 160.506 20.1191C160.24 18.4022 143.256 17.9442 140.071 19.547Z" fill="#F0EFEF"/>
<path d="M138.744 19.547C138.744 19.547 138.611 21.6078 138.214 24.0115C139.938 25.4991 142.194 27.56 143.92 28.8194C145.114 29.7355 148.032 29.6208 150.687 29.6208C153.075 29.6208 155.198 29.8496 156.127 29.3921C158.251 28.476 161.302 26.187 163.027 24.4695C162.895 22.4092 162.762 20.463 162.63 19.547C162.496 17.9441 141.928 17.9441 138.744 19.547Z" fill="#010101"/>
<path d="M150.819 28.2468C149.227 28.2468 147.369 28.1327 145.909 27.9034C145.246 27.7893 144.582 27.4459 144.052 27.2166C143.123 26.644 142.194 25.9578 141.133 25.2704C139.009 23.8969 138.877 23.0955 138.877 22.7527C139.806 15.5405 138.611 9.47369 138.611 9.47369C138.611 9.47369 137.682 6.38269 142.725 5.58127C147.767 4.77986 150.819 4.66577 150.819 4.66577C150.819 4.66577 154.004 4.66577 158.913 5.58127C163.955 6.38269 163.026 9.47369 163.026 9.47369C163.026 9.47369 161.832 15.5405 162.761 22.7527C162.761 23.0955 162.629 23.8969 160.505 25.2704C158.647 26.4152 157.188 27.6741 155.729 27.9034C154.269 28.1327 152.411 28.2468 150.819 28.2468Z" fill="#010101"/>
<path d="M150.819 1.68939C142.061 1.68939 140.336 3.74969 137.815 6.03928C137.284 6.6114 137.682 10.0458 138.611 17.372H139.806C139.806 17.372 139.009 15.3112 139.142 12.9075C139.275 10.5038 139.806 10.6185 139.407 10.0458C138.877 9.35846 137.815 8.21367 140.204 7.06943C142.592 5.92463 146.307 7.98493 150.819 8.09958C155.33 7.98493 159.178 5.92463 161.566 7.06943C163.955 8.21367 162.893 9.35846 162.363 10.0458C161.832 10.7326 162.495 10.5033 162.628 12.9075C162.76 15.3112 161.964 17.372 161.964 17.372H163.159C163.955 10.0458 164.486 6.8407 164.087 6.26802C161.832 3.74969 159.576 1.80348 150.819 1.68939Z" fill="#010101"/>
<path d="M192.882 91.8934C192.882 91.8934 190.36 98.8762 185.451 101.28C184.389 100.822 184.522 100.136 183.593 99.105C183.327 98.7622 182.398 98.5323 182.001 98.1895C181.603 97.8461 181.736 97.2734 181.072 96.816C180.541 96.3579 180.143 96.7013 179.612 96.3579C179.082 95.9005 178.948 95.3278 178.551 94.985C178.285 94.7557 177.224 94.6416 176.959 94.4123C176.295 93.8396 170.457 92.8095 170.723 91.6647C171.253 89.9472 172.315 88.6883 172.315 88.6883C172.315 88.6883 174.836 85.4832 177.356 85.5973C179.877 85.7119 182.266 86.17 183.593 85.1398C185.053 83.9945 193.28 88.2303 192.882 91.8934Z" fill="#010101"/>
<path d="M175.631 41.297C175.631 41.297 183.99 39.5796 189.696 44.2734C195.402 49.0813 195.004 55.0335 193.279 58.6966C194.739 60.1848 197.392 64.3054 195.402 69.2279C204.16 75.6381 200.312 85.4833 192.483 92.0081C192.483 92.0081 190.625 86.0554 183.195 85.712C183.46 83.423 176.295 81.5908 179.612 75.6381C174.57 74.608 174.703 71.6316 173.907 67.9691C173.243 64.3054 175.631 41.297 175.631 41.297Z" fill="#010101"/>
<path d="M172.58 44.502C172.58 44.502 182.266 40.2668 187.972 45.0747C193.678 49.8826 192.085 55.148 190.36 58.8112C191.82 60.2988 195.27 64.5351 193.147 69.5712C192.749 70.716 189.83 70.716 187.706 73.6924C193.013 71.0589 196.331 71.7462 197.525 75.0654C199.383 80.2167 195.269 86.3981 191.687 89.8325C191.687 89.7179 191.554 89.6032 191.554 89.4891C191.024 91.2066 190.36 94.5258 186.379 98.1889C184.389 100.02 182.797 99.7917 180.541 99.3337C177.887 98.761 176.958 97.7303 173.243 96.014C171.12 94.9838 172.314 93.7244 172.314 92.6942C172.314 92.4655 172.579 92.1215 172.978 91.6641C173.243 91.0914 174.039 90.1765 175.233 89.1457C175.233 89.1457 176.958 87.0855 179.48 87.1995C182.001 87.3142 184.654 86.8567 185.318 86.284C185.318 82.2775 180.011 82.1629 181.868 75.2947C182.001 74.9513 182.665 74.3786 184.787 74.1499C181.602 73.5772 180.143 73.4625 177.887 71.6315C176.295 70.3726 175.101 68.7698 174.702 66.7095C173.907 63.161 172.58 44.502 172.58 44.502Z" fill="#F0EFEF"/>
<path d="M144.583 37.2905C143.787 36.3745 139.673 31.7959 131.844 29.9643C129.588 29.3916 128.129 30.9944 125.874 32.1392C125.21 31.7958 122.291 30.6511 120.699 31.4519C119.107 32.2528 118.045 33.0547 116.453 33.6268C115.656 33.2835 113.534 33.2835 111.809 33.8556C110.084 34.3136 107.43 35.3438 104.908 38.3201C103.316 43.2427 133.038 39.579 133.038 39.579L144.583 37.2905Z" fill="#010101"/>
<path d="M144.848 37.2905C140.601 36.031 141.265 31.7958 131.844 31.109C129.986 30.9944 128.792 32.2532 127.465 33.0547C128.128 33.6273 128.792 34.5428 129.19 35.4583C127.996 34.3141 125.873 32.8254 123.749 32.482C121.759 32.1391 120.432 33.398 118.309 34.3141C118.706 34.6569 119.105 35.2296 119.635 35.9169C117.777 34.8868 116.451 34.5434 113.93 35.3442C112.205 35.8017 108.887 37.0612 106.366 40.1522C104.774 45.0747 133.17 39.5795 133.17 39.5795L144.848 37.2905Z" fill="#8AC640"/>
<path d="M169.794 39.122C169.794 39.122 169.794 37.8626 169.661 36.7183C169.661 36.4896 168.6 35.9169 168.6 35.6882L168.335 35.4589C168.335 35.4589 170.458 34.4287 172.05 35.0014C173.775 35.4589 174.703 37.4051 174.703 37.4051C177.756 36.4896 178.021 37.5197 179.481 38.8933C182.665 38.3206 183.063 39.3507 185.054 41.8696C185.054 41.8696 182.665 41.5263 178.021 42.2125C173.509 42.7846 169.794 39.0074 169.794 39.122Z" fill="#010101"/>
<path d="M169.264 38.5494C169.264 38.5494 170.06 37.9767 169.794 37.8621C171.253 37.1753 173.244 36.3745 174.173 38.5494C177.225 37.6334 177.623 38.8928 179.082 40.2669C182.797 38.7787 183.063 40.6097 183.328 41.4111C182.134 41.4111 180.41 41.5258 178.021 41.7545C173.51 42.3272 169.131 38.4348 169.264 38.5494Z" fill="#8AC640"/>
<path d="M124.148 35.6876C124.148 35.6876 131.712 37.9767 138.081 37.6333C144.45 37.1758 155.33 36.7178 161.169 39.6941C161.169 39.6941 167.14 37.862 172.713 39.1215C178.287 40.3803 188.503 48.6227 185.452 57.3224C185.186 57.8951 183.461 58.8106 181.471 59.3833C181.471 59.3833 182.533 63.2752 180.675 66.4803C178.817 69.5713 174.704 75.524 174.571 83.7657C174.438 85.1393 174.173 88.001 173.908 89.3745C163.557 89.0317 147.635 85.7114 131.977 85.9407C132.11 84.4531 132.242 83.537 132.375 82.0488H132.773C131.977 78.271 131.712 76.3248 130.915 73.4631C125.873 70.7161 120.565 67.511 116.054 61.4436C111.675 55.3762 124.148 35.6876 124.148 35.6876Z" fill="#010101"/>
<path d="M175.367 97.5028C175.367 97.5028 183.594 122.916 173.908 133.562C173.908 133.562 175.367 138.484 172.05 143.75C171.519 146.039 170.855 148.1 170.457 150.389C168.732 159.89 165.813 163.897 165.017 179.121L157.055 179.007C157.055 179.007 156.126 168.018 153.339 162.18C151.748 158.86 145.51 154.395 145.777 149.931C146.042 146.497 146.838 143.635 153.606 139.056C154.136 132.417 146.44 126.12 147.635 101.395L175.367 97.5028Z" fill="#010101"/>
<path d="M172.98 96.472C175.103 108.148 180.012 125.434 171.122 133.904C171.519 135.507 171.785 137.797 171.254 140.429C170.989 141.803 170.458 143.291 169.795 144.893C168.468 147.641 167.937 151.647 167.539 154.051C165.814 163.552 165.814 164.011 165.018 179.235L157.056 179.121C157.056 179.121 156.127 168.131 153.341 162.294C151.749 158.974 148.431 156.112 148.166 151.648C147.901 148.214 150.687 141.346 157.322 141.574C156.924 127.723 149.493 130.47 147.503 101.623L172.98 96.472Z" fill="#F0EFEF"/>
<path d="M124.149 35.6876C124.149 35.6876 127.068 36.489 130.253 36.7178C133.437 36.9465 136.887 36.7178 139.939 36.6031C146.308 36.1457 155.331 35.573 161.302 38.5493C161.302 38.5493 164.619 37.6333 168.202 37.862C169.795 37.9767 171.387 39.1215 173.245 39.5795C179.083 40.8384 184.656 49.1948 182.134 56.7503C181.869 57.323 180.011 56.7503 177.888 57.323C178.285 58.9258 178.552 62.5889 176.428 66.4808C174.173 70.3732 171.254 75.4099 171.784 85.0257C157.852 84.453 151.615 83.6522 137.815 83.0795C136.621 78.8437 135.824 74.6085 135.692 72.4335C137.55 71.6321 138.611 70.9459 140.071 69.5718C136.091 70.1445 134.498 69.9152 132.109 68.7704C129.721 67.6256 125.475 63.9625 123.352 61.5588C123.087 61.3295 121.627 65.1067 118.31 65.2219C117.115 63.7337 122.158 59.4979 121.229 57.8957C117.912 52.057 124.149 35.6876 124.149 35.6876Z" fill="#F0EFEF"/>
<path d="M174.04 86.9708C174.04 86.9708 174.305 91.092 174.305 92.1221C174.305 93.2669 175.367 96.7008 175.499 98.3036C174.04 100.479 167.671 105.401 156.127 107.233C144.715 109.293 129.589 93.8396 129.589 93.8396C129.987 92.3514 131.314 88.001 132.243 85.712C132.376 85.4832 132.641 84.9105 132.641 84.6818C133.836 83.1936 174.04 86.9708 174.04 86.9708Z" fill="#010101"/>
<path d="M171.122 87.3148C171.122 90.1765 171.652 92.2374 172.051 94.069C172.714 97.3887 173.776 99.5636 173.776 101.739C173.776 108.377 163.691 107.233 155.198 107.462C143.787 109.523 134.101 94.069 134.101 94.069C134.897 91.436 135.428 88.4602 136.622 85.9413C136.754 84.5678 137.02 82.8509 137.152 82.0494C153.34 82.0494 164.752 82.8509 171.387 83.4224C171.652 84.6819 171.387 86.8568 171.122 87.3148Z" fill="#F0EFEF"/>
<path d="M158.382 102.081C158.382 102.081 151.349 88.5736 130.251 92.5807C125.209 104.829 118.442 118.909 122.821 134.134C118.442 139.285 113.399 142.148 113.399 151.648C113.399 161.149 113.93 162.752 113.93 162.752L129.455 163.44C129.455 163.44 134.497 157.831 136.487 151.763C137.018 150.046 137.549 146.955 137.151 143.407C137.681 142.72 139.937 141.118 140.203 138.027C140.203 138.027 147.766 134.593 152.145 126.237C156.259 118.68 155.197 112.155 158.382 102.081Z" fill="#010101"/>
<path d="M158.381 102.081C157.984 100.823 152.676 88.4596 133.037 92.1222C121.494 118.68 125.74 129.669 127.464 134.477C119.635 143.062 116.053 144.894 117.646 162.294H127.996C132.772 155.769 133.834 153.365 134.099 144.779C134.099 144.436 132.64 145.466 131.578 146.611C132.375 143.063 134.63 142.376 136.355 140.201C137.151 139.285 137.814 137.911 137.814 136.08C147.103 130.7 150.553 123.945 152.543 116.963C154.136 112.155 155.993 104.256 158.381 102.081Z" fill="#F0EFEF"/>
<path d="M125.608 83.6516C125.608 83.6516 129.191 83.7657 132.376 84.6818C135.428 85.5973 135.428 86.1694 136.622 87.3147C137.817 88.4601 140.736 90.1765 140.205 91.8934C139.94 92.8094 139.276 93.0382 138.347 93.8396C137.949 94.183 135.03 96.93 134.366 97.2734C133.968 97.5021 133.438 97.8461 133.039 98.0748C132.642 98.3035 131.448 98.9909 131.049 99.2196C129.722 99.7923 128.793 100.136 127.334 100.021C127.334 100.021 124.017 99.9064 121.893 97.9607C121.893 97.9607 121.628 97.0447 122.159 96.5872C122.159 96.5872 119.372 94.5263 118.576 93.1528C117.779 91.7798 117.779 89.8336 118.311 88.8035C118.576 87.7722 123.751 84.9105 125.608 83.6516Z" fill="#010101"/>
<path d="M128.926 195.033L128.528 197.895C128.528 197.895 127.334 199.154 118.444 199.04C109.421 198.925 107.032 196.522 106.236 195.262L105.706 192.286C105.706 192.286 107.431 190.111 107.829 190.111C110.748 190.34 120.7 193.774 127.6 194.69C128.262 194.69 128.395 194.918 128.926 195.033Z" fill="#010101"/>
<path d="M148.165 189.195C148.165 190.454 148.032 190.454 148.032 191.713C149.624 192.743 153.606 193.316 161.169 193.201C172.182 192.972 182.399 196.063 194.872 194.231L195.005 192.171L193.81 192.057L149.624 188.966L148.165 189.195Z" fill="#010101"/>
<path d="M157.852 193.201C158.914 193.201 159.975 193.201 161.169 193.201C168.335 192.973 175.102 194.346 182.4 194.69C186.248 194.575 191.025 193.774 190.627 191.37L152.943 188.622C150.687 190.797 152.411 192.629 157.852 193.201Z" fill="#010101"/>
<path d="M114.593 145.009C115.788 145.696 123.882 149.817 137.018 149.244C136.752 151.419 136.885 155.655 131.047 163.095C128.128 166.758 125.606 173.169 125.076 181.297C125.209 183.128 126.403 184.73 124.811 187.135C125.341 188.622 127.464 191.599 128.526 193.43C129.587 195.262 130.118 197.323 123.085 197.437C115.92 197.551 104.376 196.865 105.968 192.057C106.765 189.539 109.02 186.906 109.286 185.875C109.551 184.845 109.551 181.755 111.807 179.694C113.797 173.97 113.134 168.476 112.736 163.324C112.072 157.944 111.939 149.359 114.593 145.009Z" fill="#010101"/>
<path d="M126.934 51.7137C136.355 40.8384 128.393 32.1392 113.267 34.7716C107.163 35.8017 101.06 39.4654 100.661 46.1044C98.6711 46.3331 94.1598 46.5618 91.9039 53.6593C90.1795 59.154 89.2506 60.1842 86.1979 62.9312C84.2077 64.8774 86.3308 68.884 87.79 71.7462C92.7 81.5908 107.826 82.5063 118.044 89.9472C121.494 89.1458 125.076 85.8266 126.138 83.6517C117.513 74.8367 119.37 71.4028 115.92 66.8242C119.636 65.6789 128.128 61.2149 126.934 51.7137Z" fill="#010101"/>
<path d="M125.076 51.0269C125.607 50.3396 126.536 48.852 126.934 48.2793C127.067 48.1646 128.527 50.3396 128.659 50.2255C132.242 45.1883 133.171 37.862 129.057 37.1753C128.128 37.0606 126.403 36.7178 124.944 36.2592C122.29 35.4578 119.902 35.4578 115.655 36.1451C109.817 37.0606 103.979 40.7237 103.979 45.9897C103.979 46.3331 108.091 47.3632 109.286 51.599C107.295 49.1948 103.845 46.5618 99.7321 48.8514C95.353 51.2551 97.609 56.7498 91.7708 62.4732C89.7799 64.4194 90.0457 66.709 92.1681 71.2876C95.6182 78.4998 111.939 82.3917 120.83 89.2599C122.953 88.4585 124.412 86.6269 125.474 85.2534C119.503 79.8733 117.114 74.8361 115.39 71.173C113.266 66.9377 110.878 64.5341 106.233 61.3278C108.622 62.1293 110.48 62.9307 111.541 63.6174C112.735 64.3042 114.46 64.4189 116.053 63.9608C121.759 62.245 124.811 55.3762 125.076 51.0269Z" fill="#F0EFEF"/>
<path d="M182.796 52.8585C182.398 57.2084 178.683 55.0334 176.693 54.232C172.712 52.7438 168.731 51.7137 164.087 51.7137C159.443 51.7137 153.471 52.0571 148.297 53.2019C141.132 54.9188 139.008 54.8047 135.824 53.4306C132.64 51.9424 127.067 48.2793 127.067 48.2793C127.067 48.2793 126.934 49.4241 128.261 50.9123C129.986 52.7438 133.834 55.0334 139.009 56.521C141.53 57.2084 143.521 56.7498 145.777 56.2923C157.586 53.774 170.059 53.316 180.541 58.8106C181.072 59.0394 182.93 58.3526 183.726 57.3225C184.786 55.8348 182.796 52.8585 182.796 52.8585Z" fill="#010101"/>
<path d="M122.423 96.472C123.484 97.0447 124.811 97.3881 126.27 98.4183C126.27 98.4183 125.076 98.4183 124.546 97.9608C123.882 97.6174 122.555 96.5873 122.423 96.472Z" fill="#0A1825"/>
<path d="M160.771 5.69589C160.373 4.66574 157.454 2.83362 150.687 2.83362C143.389 2.83362 141.266 4.77983 141.134 5.80998C141.134 6.15336 140.603 9.81705 140.47 11.3047C140.47 11.3047 140.47 13.1362 140.602 15.8833C140.735 17.7149 141.266 18.745 141.531 21.1492C141.796 23.667 142.593 25.2698 144.052 27.3307C144.716 27.6735 145.246 28.0175 145.91 28.1321C148.564 28.5896 153.208 28.7042 155.729 28.1321C157.188 27.7887 159.046 25.6138 159.444 23.6676C159.975 21.2639 160.506 19.5464 160.638 18.0588C160.904 16.5712 161.036 13.2509 161.169 12.3348C161.567 9.81705 160.904 5.92463 160.771 5.69589Z" fill="#F0EFEF"/>
<path d="M146.839 147.184C146.839 147.184 153.872 149.817 171.254 147.527C171.254 147.527 166.345 168.819 168.601 179.464C168.601 179.464 170.856 182.212 187.576 187.477C187.576 187.477 195.006 189.08 194.741 192.286C194.741 192.286 195.006 192.973 185.984 192.743C176.961 192.514 168.468 191.141 162.497 191.141C156.526 191.141 150.157 191.369 149.096 189.882C147.902 188.508 149.361 184.959 151.086 182.898C152.944 180.724 152.413 179.121 152.281 175.229C151.881 165.041 142.858 154.51 146.839 147.184Z" fill="#010101"/>
<path d="M145.378 149.13C144.449 150.275 145.51 154.624 146.837 158.86C148.164 163.095 151.084 165.614 151.747 172.596C152.41 179.464 152.543 180.381 150.287 184.386C148.031 188.392 147.368 192.056 155.196 192.171C163.025 192.285 167.271 192.056 175.233 193.087C183.195 194.117 185.981 194.46 190.36 193.888C194.739 193.316 195.667 192.056 193.81 190.912C191.952 189.767 184.256 188.508 180.939 186.218C177.754 184.158 168.731 180.723 168.599 179.808C168.201 176.717 168.068 165.499 168.731 161.836C169.395 158.172 170.323 152.906 170.589 151.533C170.855 150.159 172.181 148.785 169.925 149.243C167.67 149.701 159.178 150.732 152.809 150.388C146.44 150.045 145.776 148.786 145.378 149.13Z" fill="#8AC640"/>
<path opacity="0.3" d="M149.891 184.502C152.147 185.417 155.464 186.105 157.985 186.105C157.985 186.105 157.056 189.882 158.516 192.171C159.975 194.461 147.9 193.087 147.9 193.087L147.37 184.96L149.891 184.502Z" fill="#010101"/>
<path opacity="0.3" d="M185.052 194.346C187.176 193.774 188.635 191.713 186.91 189.768C185.052 187.821 183.46 187.478 185.849 187.364C188.237 187.249 196.995 191.828 196.995 191.828L192.483 195.376L185.052 194.346Z" fill="#010101"/>
<path opacity="0.3" d="M144.981 153.594C148.033 154.51 152.677 154.739 156.658 154.624C160.638 154.51 166.61 154.051 170.458 152.907C174.306 151.762 172.714 154.166 172.714 154.166L170.591 155.883C170.591 155.883 165.548 157.6 157.322 157.486C147.636 157.372 144.716 156.456 144.716 156.456L144.981 153.594Z" fill="#010101"/>
<path opacity="0.3" d="M145.245 159.318C148.298 160.234 152.941 160.463 156.922 160.348C160.903 160.234 166.211 160.234 170.059 158.974C171.651 158.517 170.722 160.463 170.722 160.463L170.059 161.493C170.059 161.493 164.884 163.096 156.789 162.98C147.103 162.866 145.378 162.179 145.378 162.179L145.245 159.318Z" fill="#010101"/>
<path d="M136.489 79.073C136.489 79.8744 146.839 84.3384 152.545 85.2544C158.251 86.1699 170.193 85.2545 172.05 84.9111L171.785 86.5139C171.785 86.5139 157.587 88.3455 146.707 85.8271C135.825 83.3088 137.02 82.7361 137.02 82.7361L136.489 79.073Z" fill="#010101"/>
<path d="M114.327 176.717C115.919 177.405 121.625 178.664 125.34 177.977C125.871 177.862 125.34 170.078 126.8 166.529C128.923 161.607 132.373 157.6 133.965 148.901C128.392 148.443 122.023 147.184 118.706 146.268C114.46 157.486 115.92 167.102 114.327 176.717Z" fill="#F0EFEF"/>
<path d="M123.219 183.93C124.148 184.158 124.811 185.074 125.077 184.502C125.607 183.471 124.148 181.526 124.015 180.152C124.015 180.038 124.015 180.152 124.015 180.038C122.821 179.122 114.726 179.008 115.257 179.465C114.328 180.953 112.869 180.724 112.339 183.701C112.074 185.188 114.197 183.93 116.186 183.815C112.604 185.875 108.491 188.509 107.827 190.798C107.031 194.003 108.358 194.919 112.339 196.636C115.789 197.323 119.902 197.438 123.086 197.323C126.669 196.75 127.333 195.263 126.271 193.202C124.678 190.111 123.617 186.104 123.219 183.93Z" fill="#F0EFEF"/>
<path d="M124.678 35.2296C129.057 37.4046 135.161 36.8324 137.416 36.7178C137.947 36.7178 143.255 35.9164 143.52 36.0305C144.051 36.1451 144.05 36.4885 144.05 36.4885C144.05 36.4885 142.06 37.404 137.549 37.6327C133.303 37.8615 128.261 37.6327 125.475 36.4885C122.157 35.2296 124.678 35.2296 124.678 35.2296Z" fill="#010101"/>
<path d="M169.793 37.4045C170.589 37.862 175.764 39.5795 178.02 41.6398C180.011 43.4719 178.949 43.3573 178.551 42.8992C178.02 42.3266 173.907 39.9229 172.314 39.3508C170.722 38.7786 168.731 37.7479 168.731 37.5192C168.731 37.2905 169.793 37.4045 169.793 37.4045Z" fill="#010101"/>
<path d="M124.014 84.9105C127.862 84.6818 131.843 85.4832 134.364 87.7722C135.691 88.917 137.814 90.1759 137.549 91.3207C137.549 91.6641 136.753 92.5802 136.09 93.2669C135.692 93.7244 134.498 94.7546 134.099 95.0985C133.569 95.4419 131.711 96.7013 131.313 96.9301C130.915 97.1594 130.384 97.732 129.986 97.8461C128.66 98.4188 127.2 97.9608 125.873 97.3887C124.547 96.816 126.139 96.7013 124.679 95.7858C121.096 93.6109 119.106 92.1221 120.566 87.8869C120.698 87.0855 122.157 86.1694 124.014 84.9105Z" fill="#F0EFEF"/>
<path opacity="0.4" d="M90.179 58.6966C78.2367 62.8178 47.8501 75.868 39.2256 79.8745C46.3908 83.7664 49.708 93.1529 50.7698 102.654C50.9021 103.57 51.035 104.372 51.1679 105.287C51.3001 106.089 51.433 106.661 51.5653 107.005C51.5653 107.119 51.5652 107.348 51.6981 107.462C59.5272 89.0323 87.5243 69.5719 88.5862 68.0837C89.1165 67.397 87.9224 64.4206 89.7803 61.5594C92.1691 57.8952 96.8139 56.2924 90.179 58.6966Z" fill="#010101"/>
<path opacity="0.4" d="M118.575 145.123C124.678 134.592 124.811 124.518 124.678 112.727C124.678 107.805 128.792 100.822 126.669 102.768C118.707 110.437 98.6714 124.862 84.208 125.662C104.51 125.09 112.471 133.905 118.575 145.123Z" fill="#010101"/>
<path d="M27.5479 89.6038C35.1111 84.9105 74.2551 66.9388 83.6763 64.4199C93.0968 61.7869 90.1777 58.6959 90.1777 58.6959C90.1777 58.6959 51.9627 72.8904 29.14 85.1392" fill="#010101"/>
<path opacity="0.4" d="M139.009 56.5217C135.957 55.4915 133.569 58.5825 134.365 61.5589C135.161 64.5352 142.327 67.8544 141.928 78.7297C141.663 87.6588 139.407 91.3213 139.407 91.3213L134.365 85.8272C134.365 85.8272 133.569 73.4638 131.844 71.6322C130.119 69.8006 124.678 66.4809 122.555 64.764C120.432 63.0465 124.943 60.7575 124.678 57.5518C124.413 54.4614 126.934 48.2799 126.934 48.2799L139.009 56.5217Z" fill="#010101"/>
<path opacity="0.4" d="M157.454 105.286C157.189 113.872 159.445 126.578 160.373 132.646C161.302 138.713 162.496 139.171 160.373 141.918C158.25 144.551 155.464 148.901 155.464 148.901L146.308 148.214C146.308 148.214 153.606 140.201 154.003 138.713C154.401 137.225 150.288 125.892 150.288 125.892L157.454 105.286Z" fill="#010101"/>
<path opacity="0.4" d="M139.806 25.1563C141.664 28.7042 143.919 30.307 147.501 31.3377C149.624 32.0245 157.984 32.9406 161.301 29.7349C162.761 28.2467 161.832 24.2402 161.832 24.2402L154.268 29.5056L144.051 27.9034L142.857 25.2704L139.806 25.1563Z" fill="#010101"/>
<path d="M140.601 33.0547C144.051 35.0009 152.676 36.8325 155.065 37.1758C157.453 37.6333 161.301 35.0009 163.159 34.3141C165.15 33.5127 168.6 33.0547 172.58 36.1457C172.978 36.4891 171.651 37.9773 171.651 37.9773C171.518 37.8626 170.722 37.8626 169.66 37.4046C168.599 36.9471 167.67 36.6032 166.078 36.7178C159.443 37.4046 158.382 39.3508 152.544 38.2054C146.705 37.0601 145.245 36.1451 139.54 36.3739" fill="#8AC640"/>
<path d="M140.601 33.0547C144.051 35.0009 152.676 36.8325 155.065 37.1758C157.453 37.6333 161.301 35.0009 163.159 34.3141C165.15 33.5127 168.6 33.0547 172.58 36.1457C172.978 36.4891 171.651 37.9773 171.651 37.9773C171.518 37.8626 170.722 37.8626 169.66 37.4046C168.599 36.9471 167.67 36.6032 166.078 36.7178C159.443 37.4046 158.382 39.3508 152.544 38.2054C146.705 37.0601 145.245 36.1451 139.54 36.3739" stroke="#010101" stroke-width="1.586" stroke-miterlimit="10" stroke-linejoin="round"/>
<path d="M139.407 33.3981C143.786 35.0009 152.279 36.7178 154.667 37.1759C157.055 37.6339 160.903 35.573 162.761 34.5429C166.079 32.7113 170.324 34.1995 172.315 36.1457C173.641 37.4046 174.173 38.206 174.173 38.5494C174.173 39.0069 172.581 38.5494 172.581 38.5494C171.652 38.206 170.59 38.0919 169.795 37.6333C168.733 37.1758 167.671 36.4891 166.079 36.6032C159.445 37.2905 158.118 39.2361 152.412 38.0914C146.707 36.9466 145.247 35.9164 139.144 36.2592" fill="#8AC640"/>
<path d="M118.84 140.315C118.575 140.086 119.105 139.857 118.84 139.857C117.116 139.857 114.727 138.713 113.399 137.11C107.694 130.013 99.3341 125.32 84.2076 125.663C61.5171 126.12 52.494 118.108 50.7696 102.769C49.8406 94.4123 47.1867 86.2846 41.7464 81.7054L38.5615 83.4229C44.6649 88.0015 46.6557 95.4424 47.9827 105.63C50.1058 120.97 64.4363 128.067 81.1556 128.296C98.5381 128.525 104.774 131.616 111.276 139.171C113.399 141.575 115.788 142.376 117.645 142.72L118.84 140.315Z" fill="#010101"/>
<path opacity="0.4" d="M180.409 66.7096C180.807 68.4265 181.869 71.7463 183.992 73.3485C184.921 74.1499 185.053 74.3787 184.257 74.3787C183.461 74.3787 177.622 74.1499 177.622 74.1499L176.03 71.7463L180.409 66.7096Z" fill="#010101"/>
</g>
<defs>
<clipPath id="clip0">
<rect width="200" height="200" fill="white" transform="translate(0.413086)"/>
</clipPath>
</defs>
</svg>
