<svg width="178" height="181"  viewBox="0 0 178 181" fill="none" xmlns="http://www.w3.org/2000/svg">
<g clip-path="url(#clip0)">
<path d="M178 35.6022L161.784 166.589L88.8911 181.16L16.1991 166.61L0 35.6022H178Z" fill="#E44D26"/>
<path d="M89 170.023L147.901 158.248L161.759 46.314H89V170.023Z" fill="#F16529"/>
<path d="M57.4764 78.4494H89.0001V62.3818H33.123L33.6565 66.6925L39.1334 110.97H89.0001V94.9028H59.5129L57.4764 78.4494Z" fill="#EBEBEB"/>
<path d="M62.4993 119.004H40.1299L43.2518 144.232L88.8984 153.369L89.001 153.349V136.632L88.9033 136.651L64.0857 131.819L62.4993 119.004Z" fill="#EBEBEB"/>
<path d="M16.5615 0L27.8858 0V8.06728H38.2449V0L49.5696 0V24.4297H38.2454V16.2492H27.8863V24.4297H16.562V0L16.5615 0Z" fill="black"/>
<path d="M64.4616 8.10125H54.4922V0L85.7607 0V8.10125H75.7869V24.4297H64.4621V8.10125H64.4616Z" fill="black"/>
<path d="M90.7227 0L102.531 0L109.794 8.58386L117.051 0L128.863 0V24.4297H117.586V12.321L109.794 21.0071H109.6L101.803 12.321V24.4297H90.7227V0Z" fill="black"/>
<path d="M134.499 0L145.827 0V16.3546H161.752V24.4297H134.499V0Z" fill="black"/>
<path d="M88.9229 110.97H116.363L113.776 131.808L88.9229 136.645V153.361L134.606 144.232L134.941 141.518L140.177 99.2172L140.721 94.9026H88.9229V110.97Z" fill="white"/>
<path d="M88.9229 78.4101V78.4493H142.749L143.196 74.8378L144.211 66.6923L144.744 62.3817H88.9229V78.4101Z" fill="white"/>
</g>
<defs>
<clipPath id="clip0">
<rect width="178" height="181" fill="white"/>
</clipPath>
</defs>
</svg>
