<svg width="200" height="200" viewBox="0 0 200 200" fill="none" xmlns="http://www.w3.org/2000/svg">
<g clip-path="url(#clip0)">
<path d="M199.941 0L0.0585938 0C0.0262333 0 0 0.0262333 0 0.0585938L0 199.941C0 199.974 0.0262333 200 0.0585938 200H199.941C199.974 200 200 199.974 200 199.941V0.0585938C200 0.0262333 199.974 0 199.941 0Z" fill="#F7DF1E"/>
<path d="M126.863 144.5C130.78 151.229 136.264 155.979 145.273 155.979C153.107 155.979 158.199 152.021 158.199 146.479C158.199 140.146 153.107 137.771 144.49 133.813L139.789 131.833C126.08 125.896 117.071 118.771 117.071 103.333C117.071 89.0833 127.647 78 144.49 78C156.632 78 165.249 82.3542 171.125 93.4375L156.632 102.938C153.499 97 149.973 94.625 144.49 94.625C139.006 94.625 135.481 98.1875 135.481 102.938C135.481 108.479 139.006 110.854 147.231 114.417L151.932 116.396C167.991 123.521 177 130.25 177 146.479C177 163.5 163.682 173 145.665 173C128.039 173 116.68 164.688 111.196 153.604L126.863 144.5ZM60.276 146.083C63.4095 151.229 65.7596 155.979 72.4184 155.979C78.6855 155.979 82.6024 153.604 82.6024 144.104V78.3958H101.404V143.313C101.404 163.104 90.0445 171.813 73.2018 171.813C57.9258 171.813 49.3086 163.896 45 154.396L60.276 146.083Z" fill="black"/>
</g>
<defs>
<clipPath id="clip0">
<rect width="200" height="200" fill="white"/>
</clipPath>
</defs>
</svg>
