<svg width="201" height="201" viewBox="0 0 201 201" fill="none" xmlns="http://www.w3.org/2000/svg">
<path d="M175.981 98.8021C175.981 89.1127 168.126 81.2581 158.437 81.2581C157.813 81.2581 157.199 81.2914 156.593 81.3547L180.689 10.2847L78.2867 10.2847L102.349 81.2934C101.997 81.2721 101.642 81.2581 101.283 81.2581C91.594 81.2581 83.7394 89.1127 83.7394 98.8021C83.7394 106.634 88.872 113.265 95.9567 115.521C92.2147 122.002 87.5067 127.839 82.1614 132.882C74.8927 139.739 66.574 144.939 57.5774 148.143C46.8654 142.64 41.8067 130.401 46.3714 119.671C46.8867 118.46 47.4127 117.231 47.916 116.009C55.676 114.197 61.4587 107.24 61.4587 98.9281C61.4587 89.2387 53.604 81.3841 43.9147 81.3841C34.2247 81.3841 26.37 89.2387 26.37 98.9281C26.37 104.87 29.3267 110.117 33.8454 113.291C29.5027 123.179 23.12 133.525 21.1314 145.517C18.748 159.89 21.124 175.146 33.554 183.761C62.5034 203.825 93.9274 171.323 127.06 163.153C139.067 160.191 152.248 160.669 162.827 154.541C170.772 149.94 176.009 142.315 177.496 133.753C178.964 125.296 176.823 116.875 171.901 110.047C174.447 107.002 175.981 103.082 175.981 98.8021ZM118.826 98.8641C118.826 98.8434 118.828 98.8227 118.828 98.8021C118.828 92.4394 115.44 86.8674 110.371 83.7921L129.523 45.0647L148.708 84.2027C143.997 87.3481 140.892 92.7121 140.892 98.8021C140.892 98.9301 140.899 99.0561 140.902 99.1834L118.826 98.8641Z" fill="#C63D14"/>
<path d="M180.266 98.802C180.266 88.1453 172.588 79.2533 162.474 77.354L186.667 6L72.3107 6L96.54 77.4987C86.778 79.6713 79.4554 88.3953 79.4554 98.802C79.4554 106.617 83.5854 113.482 89.7754 117.339C86.798 121.775 83.2674 125.949 79.2214 129.765C72.8054 135.819 65.6567 140.409 57.95 143.429C50.188 138.553 46.9067 129.359 50.3147 121.348L50.5814 120.721C50.748 120.329 50.9154 119.936 51.082 119.543C59.6074 116.57 65.744 108.455 65.744 98.928C65.744 86.8913 55.9514 77.0993 43.9147 77.0993C31.878 77.0993 22.086 86.8913 22.086 98.928C22.086 105.003 24.5827 110.505 28.6014 114.466C27.8727 116.019 27.1067 117.598 26.3194 119.215C22.6447 126.763 18.48 135.317 16.9047 144.817C13.776 163.683 18.822 178.764 31.1134 187.283C38.572 192.452 46.146 194.485 53.768 194.485C68.1207 194.484 82.6387 187.274 96.8387 180.221C107.066 175.141 117.641 169.889 128.087 167.313C131.973 166.354 135.973 165.777 140.207 165.167C148.603 163.955 157.285 162.703 164.976 158.249C173.89 153.086 179.993 144.425 181.718 134.487C183.199 125.955 181.416 117.411 177.068 110.165C179.095 106.853 180.266 102.962 180.266 98.802ZM171.697 98.802C171.697 106.113 165.749 112.062 158.437 112.062C151.126 112.062 145.177 106.113 145.177 98.802C145.177 91.4907 151.126 85.5427 158.437 85.5427C165.749 85.5427 171.697 91.4907 171.697 98.802ZM174.713 14.5693L153.349 77.578C152.423 77.8 151.521 78.08 150.644 78.4167L129.54 35.3647L108.375 78.162C107.46 77.8467 106.519 77.5873 105.553 77.3953L84.2634 14.5693H174.713ZM101.284 85.5427C108.595 85.5427 114.543 91.4907 114.543 98.802C114.543 106.113 108.595 112.062 101.284 112.062C93.9734 112.062 88.0247 106.113 88.0247 98.802C88.0247 91.4907 93.9734 85.5427 101.284 85.5427ZM43.9147 85.6687C51.2267 85.6687 57.1747 91.6167 57.1747 98.928C57.1747 106.239 51.2267 112.188 43.9147 112.188C36.604 112.188 30.6554 106.239 30.6554 98.928C30.6554 91.6167 36.604 85.6687 43.9147 85.6687ZM173.275 133.021C171.985 140.453 167.394 146.945 160.681 150.833C154.423 154.458 146.923 155.54 138.983 156.685C134.73 157.298 130.331 157.933 126.035 158.993C114.673 161.794 103.669 167.26 93.0267 172.546C71.73 183.124 53.3374 192.259 35.9954 180.239C23.292 171.435 23.8787 155.145 25.3587 146.219C26.73 137.949 30.438 130.332 34.024 122.966C34.6447 121.691 35.2474 120.443 35.8387 119.202C37.6174 119.913 39.5087 120.398 41.48 120.618C37.83 132.665 43.5707 145.764 55.6194 151.954L57.268 152.801L59.0147 152.179C68.54 148.787 77.3167 143.343 85.102 135.999C90.1347 131.251 94.4594 125.999 98.0154 120.386C99.082 120.547 100.173 120.631 101.284 120.631C113.321 120.631 123.113 110.839 123.113 98.802C123.113 92.3287 120.278 86.5073 115.787 82.506L129.506 54.7647L143.364 83.0347C139.206 87.012 136.608 92.6073 136.608 98.802C136.608 110.839 146.4 120.631 158.437 120.631C163.061 120.631 167.351 119.182 170.885 116.719C173.338 121.741 174.252 127.392 173.275 133.021Z" fill="white"/>
</svg>
