<svg width="201" height="201" viewBox="0 0 201 201" fill="none" xmlns="http://www.w3.org/2000/svg">
<path d="M160.107 71.3491C158.188 70.6886 156.199 70.0635 154.152 69.4725C154.488 68.099 154.797 66.7432 155.072 65.4106C159.58 43.5278 156.632 25.8988 146.567 20.0946C136.916 14.5292 121.133 20.332 105.192 34.2047C103.659 35.5387 102.122 36.951 100.586 38.4312C99.5618 37.4519 98.5397 36.5055 97.5202 35.6003C80.8139 20.7667 64.0685 14.5157 54.0134 20.3366C44.3716 25.9182 41.5162 42.4911 45.5742 63.2296C45.966 65.2328 46.4241 67.2784 46.9421 69.3582C44.5721 70.0309 42.2842 70.7482 40.095 71.5111C20.5087 78.3398 8 89.042 8 100.143C8 111.608 21.4281 123.108 41.8287 130.081C43.4387 130.631 45.1092 131.151 46.8308 131.645C46.2719 133.895 45.7859 136.099 45.3779 138.249C41.5087 158.627 44.5303 174.809 54.1464 180.355C64.079 186.083 80.7487 180.195 96.9808 166.007C98.2637 164.885 99.5513 163.696 100.841 162.449C102.513 164.059 104.182 165.583 105.843 167.012C121.565 180.542 137.094 186.005 146.701 180.443C156.624 174.699 159.849 157.316 155.662 136.167C155.342 134.552 154.97 132.902 154.552 131.223C155.723 130.877 156.872 130.519 157.993 130.148C179.201 123.121 193 111.761 193 100.143C193 89.0018 180.088 78.2275 160.107 71.3491ZM155.507 122.646C154.496 122.981 153.458 123.305 152.4 123.619C150.059 116.206 146.899 108.325 143.032 100.181C146.722 92.2322 149.76 84.4512 152.035 77.0871C153.928 77.6348 155.765 78.2123 157.535 78.8219C174.654 84.7153 185.097 93.4289 185.097 100.143C185.097 107.295 173.819 116.578 155.507 122.646ZM147.909 137.702C149.76 147.054 150.025 155.509 148.798 162.119C147.697 168.058 145.481 172.018 142.741 173.604C136.911 176.978 124.443 172.592 110.997 161.021C109.455 159.694 107.903 158.278 106.345 156.779C111.558 151.078 116.768 144.45 121.852 137.089C130.796 136.296 139.245 134.998 146.908 133.227C147.285 134.749 147.62 136.242 147.909 137.702ZM71.0707 173.02C65.3745 175.032 60.8378 175.09 58.0954 173.508C52.2599 170.143 49.834 157.151 53.1431 139.723C53.5221 137.727 53.9732 135.677 54.4932 133.581C62.0716 135.257 70.4592 136.463 79.424 137.19C84.5429 144.392 89.9032 151.013 95.305 156.81C94.1248 157.949 92.9492 159.034 91.7802 160.056C84.6025 166.33 77.4097 170.782 71.0707 173.02ZM44.3847 122.602C35.364 119.519 27.9143 115.512 22.8079 111.139C18.2194 107.21 15.9028 103.308 15.9028 100.143C15.9028 93.4065 25.9461 84.8141 42.6964 78.974C44.7289 78.2654 46.8564 77.5975 49.0644 76.9702C51.3793 84.5006 54.4161 92.3738 58.0809 100.335C54.3687 108.415 51.2888 116.414 48.9511 124.032C47.3771 123.58 45.8521 123.104 44.3847 122.602ZM53.3301 61.7119C49.8534 43.9437 52.1624 30.5399 57.9729 27.1765C64.162 23.5934 77.848 28.7021 92.2725 41.5102C93.1945 42.3288 94.1202 43.1856 95.0485 44.0721C89.6734 49.8437 84.3621 56.4145 79.2886 63.5747C70.5879 64.3812 62.2593 65.6766 54.6019 67.4114C54.1204 65.4748 53.694 63.5721 53.3301 61.7119ZM133.131 81.4167C131.3 78.2548 129.421 75.1677 127.505 72.1648C133.408 72.911 139.063 73.9015 144.374 75.1137C142.779 80.2237 140.792 85.5666 138.453 91.0438C136.775 87.8578 135 84.6455 133.131 81.4167ZM100.588 49.7202C104.234 53.6695 107.884 58.0788 111.475 62.8628C107.857 62.6919 104.193 62.603 100.5 62.603C96.8415 62.603 93.2054 62.6899 89.6095 62.8579C93.2038 58.1183 96.886 53.7149 100.588 49.7202ZM67.8373 81.4714C66.0087 84.6422 64.2667 87.8371 62.615 91.0378C60.3135 85.5797 58.3446 80.2125 56.7364 75.03C62.0147 73.8488 67.6434 72.883 73.5085 72.151C71.5656 75.1815 69.6708 78.2914 67.8373 81.4707V81.4714ZM73.6774 128.699C67.6177 128.023 61.9044 127.106 56.6274 125.958C58.2613 120.683 60.2737 115.201 62.6239 109.625C64.2799 112.824 66.0288 116.02 67.8686 119.198H67.8689C69.743 122.435 71.6845 125.606 73.6774 128.699ZM100.807 151.123C97.0612 147.081 93.3249 142.611 89.676 137.802C93.2182 137.941 96.8296 138.012 100.5 138.012C104.271 138.012 107.998 137.927 111.667 137.764C108.065 142.659 104.428 147.137 100.807 151.123ZM138.528 109.341C141.001 114.977 143.085 120.43 144.74 125.615C139.377 126.839 133.585 127.825 127.483 128.557C129.404 125.514 131.3 122.373 133.162 119.143C135.047 115.875 136.836 112.603 138.528 109.341ZM126.317 115.195C123.425 120.209 120.456 124.996 117.442 129.514C111.952 129.907 106.28 130.109 100.5 130.109C94.7429 130.109 89.1429 129.93 83.7503 129.58C80.6147 125.003 77.5812 120.202 74.7078 115.238H74.7084C71.8426 110.288 69.2049 105.296 66.8148 100.333C69.2042 95.3572 71.835 90.3598 74.6844 85.4187L74.6837 85.4197C77.5407 80.4654 80.5475 75.6879 83.6541 71.139C89.156 70.7231 94.7979 70.5061 100.5 70.5061H100.5C106.227 70.5061 111.877 70.7248 117.377 71.1443C120.436 75.66 123.422 80.4219 126.291 85.3769C129.191 90.3875 131.856 95.3516 134.266 100.22C131.863 105.173 129.205 110.187 126.317 115.195ZM142.62 26.9414C148.815 30.5139 151.224 44.922 147.332 63.8155C147.083 65.021 146.804 66.249 146.5 67.4934C138.825 65.7224 130.49 64.4046 121.764 63.5859C116.681 56.347 111.413 49.766 106.126 44.0685C107.547 42.7009 108.967 41.3969 110.381 40.1663C124.039 28.2803 136.804 23.5875 142.62 26.9414ZM100.5 83.623C109.624 83.623 117.02 91.0191 117.02 100.143C117.02 109.266 109.624 116.663 100.5 116.663C91.3765 116.663 83.9801 109.266 83.9801 100.143C83.9801 91.0191 91.3765 83.623 100.5 83.623Z" fill="#00D8FF"/>
</svg>
