<svg width="201" height="201" viewBox="0 0 201 201" fill="none" xmlns="http://www.w3.org/2000/svg">
<path d="M135.091 134.137C141.54 133.439 146.433 127.627 146.211 120.651C145.988 113.676 140.429 108.096 133.757 108.096H133.312C126.418 108.328 121.08 114.374 121.303 121.581C121.525 125.069 122.86 128.092 124.861 130.184C117.3 145.762 105.736 157.155 88.389 166.688C76.6023 173.198 64.3708 175.523 52.1392 173.896C42.1316 172.501 34.348 167.851 29.4553 160.178C22.3388 148.785 21.6717 136.462 27.6762 124.139C31.9016 115.304 38.5734 108.793 42.7988 105.538C41.9093 102.516 40.5749 97.4005 39.9077 93.6804C7.66102 118.094 10.9969 151.11 20.7821 166.688C28.121 178.313 43.0212 185.521 59.4782 185.521C63.926 185.521 68.3738 185.056 72.8216 183.894C101.288 178.081 122.86 160.41 135.091 134.137ZM174.232 105.306C157.33 84.6125 132.422 73.2196 103.956 73.2196H100.398C98.3966 69.0345 94.1712 66.2444 89.501 66.2444H89.0562C82.162 66.4769 76.8247 72.5221 77.047 79.7299C77.2694 86.7051 82.8292 92.2853 89.501 92.2853H89.9457C94.8383 92.0528 99.0638 88.7977 100.843 84.38H104.846C121.748 84.38 137.76 89.4952 152.215 99.4931C163.335 107.166 171.341 117.164 175.789 129.254C179.569 139.019 179.347 148.552 175.344 156.69C169.117 169.013 158.665 175.756 144.876 175.756C135.981 175.756 127.53 172.966 123.082 170.873C120.636 173.198 116.188 176.918 113.074 179.243C122.637 183.894 132.422 186.451 141.763 186.451C163.112 186.451 178.902 174.128 184.907 161.805C191.356 148.32 190.911 125.069 174.232 105.306ZM61.2573 138.089C61.4797 145.065 67.0394 150.645 73.7112 150.645H74.156C81.0501 150.412 86.3875 144.367 86.1651 137.159C85.9427 130.184 80.3829 124.604 73.7112 124.604H73.2664C72.8216 124.604 72.1544 124.604 71.7097 124.836C62.5916 109.026 58.811 91.8203 60.1453 73.2196C61.0349 59.2691 65.4827 47.1787 73.2664 37.1809C79.7157 28.5781 92.1696 24.3929 100.621 24.1604C124.194 23.6954 134.202 54.3865 134.869 66.7094C137.76 67.4069 142.652 69.0345 145.988 70.197C143.32 32.5307 121.08 13 99.7309 13C79.7157 13 61.2573 28.113 53.9184 50.4338C43.6884 80.1949 50.3601 108.793 62.814 131.347C61.7021 132.974 61.0349 135.532 61.2573 138.089Z" fill="#764ABC"/>
</svg>
