<svg width="200" height="200" viewBox="0 0 200 200" fill="none" xmlns="http://www.w3.org/2000/svg">
<g clip-path="url(#clip0)">
<path d="M174.116 123.738C167.662 123.784 162.053 125.861 157.357 128.931C155.633 124.371 153.91 120.307 153.606 117.326C153.268 113.849 152.862 111.727 153.268 107.573C153.673 103.418 155.498 97.5029 155.464 97.0514C155.43 96.5998 155.059 94.4775 151.342 94.4324C147.625 94.3872 144.415 95.3806 144.043 96.6901C143.672 97.9997 142.962 100.98 142.489 104.051C141.847 108.566 135.055 124.687 131.169 133.131C129.919 129.834 128.838 126.944 128.601 124.642C128.263 121.165 127.858 119.042 128.263 114.888C128.669 110.734 130.493 104.818 130.46 104.367C130.426 103.915 130.054 101.793 126.337 101.748C122.62 101.702 119.41 102.696 119.039 104.005C118.667 105.315 118.261 108.385 117.484 111.366C116.707 114.346 107.685 141.259 105.32 148.213C104.103 151.78 103.056 154.625 102.313 156.567C102.313 156.567 102.279 156.702 102.177 156.928C101.535 158.599 101.164 159.502 101.164 159.502C101.164 159.502 101.164 159.502 101.164 159.547C100.657 160.766 100.116 161.895 99.8459 161.895C99.6431 161.895 99.2714 158.644 99.9135 154.219C101.265 144.871 104.475 130.331 104.441 129.834C104.441 129.564 105.05 127.035 102.346 125.725C99.7107 124.416 98.7646 126.583 98.5281 126.583C98.2915 126.583 98.1226 127.351 98.1226 127.351C98.1226 127.351 101.062 111.005 92.5134 111.005C87.1746 111.005 79.8084 118.816 76.1591 125.861C73.8613 127.532 68.9618 131.099 63.7243 134.937C61.7307 136.427 59.6695 137.917 57.7435 139.317C57.6083 139.137 57.4732 138.911 57.338 138.73C46.9983 123.964 27.8731 113.533 28.6841 93.7099C28.9882 86.4849 30.8466 67.5195 65.4138 44.4901C93.865 25.7504 116.504 30.9434 120.424 42.4581C126.033 58.8948 108.293 89.4201 78.896 93.8453C67.6778 95.5161 61.7983 89.7362 60.3115 87.5687C58.7572 85.3109 58.5207 85.1754 57.9462 85.627C57.0001 86.3043 57.6083 88.3363 57.9462 89.5104C58.8248 92.581 62.4403 97.9997 68.5563 100.664C73.9627 103.012 87.107 104.321 103.022 96.1031C120.829 86.8913 134.751 61.288 130.662 39.839C126.574 18.074 99.5418 10.8942 73.9627 23.0411C58.7572 30.266 42.2677 41.6453 30.4074 56.4564C16.3169 74.0671 14.0868 89.3749 14.9991 95.787C18.2767 118.546 41.7608 133.357 51.1544 144.329C50.6814 144.691 50.2421 145.007 49.8704 145.278C45.1736 148.393 27.2649 160.902 22.8046 174.132C17.7361 189.124 23.6156 199.871 27.5014 201.316C39.5645 205.786 51.9654 197.749 58.622 184.473C65.2787 171.197 64.4677 153.948 61.3928 146.045C61.359 145.955 61.3252 145.865 61.2577 145.774C62.4741 144.826 63.7243 143.833 64.9408 142.884C67.3399 140.988 69.7052 139.227 71.7326 137.782C70.5837 141.981 69.739 146.994 69.3335 154.219C68.8266 162.708 71.4284 173.726 74.8412 178.061C76.3618 179.957 78.1527 180.003 79.3015 180.003C83.2888 180.003 85.0796 175.577 87.0732 170.339C89.5061 163.927 91.7025 156.476 91.7025 156.476C91.7025 156.476 88.9655 176.616 96.3993 176.616C99.1025 176.616 101.839 171.92 103.056 169.526V169.572C103.056 169.572 103.124 169.436 103.259 169.12C103.529 168.533 103.698 168.172 103.698 168.172V168.081C104.779 165.553 107.212 159.818 110.828 150.29C115.491 138.008 119.985 122.655 119.985 122.655C119.985 122.655 120.39 126.403 121.776 132.634C122.587 136.292 124.276 140.311 125.628 144.194C124.546 146.226 123.871 147.355 123.871 147.355C123.871 147.355 123.871 147.355 123.904 147.4C123.026 148.935 122.08 150.606 121.032 152.232C117.349 158.102 112.956 164.83 112.348 166.772C111.639 169.075 111.808 170.746 113.159 172.1C114.139 173.094 115.896 173.229 117.687 173.094C120.998 172.778 123.33 171.694 124.479 171.017C126.27 170.159 128.365 168.849 130.324 166.907C133.94 163.34 136.136 158.237 135.934 151.509C135.832 147.806 134.92 144.104 133.805 140.627C134.143 139.995 134.447 139.362 134.785 138.73C140.495 127.577 144.922 115.339 144.922 115.339C144.922 115.339 145.327 119.087 146.713 125.319C147.388 128.48 148.774 131.912 149.99 135.253C144.618 141.078 141.306 147.852 140.124 152.277C137.995 160.495 139.651 164.198 142.793 165.056C144.212 165.462 146.24 164.559 147.726 163.701C149.619 162.888 151.849 161.489 153.978 159.411C157.593 155.844 161.073 150.877 160.871 144.149C160.769 141.078 160.161 138.053 159.316 135.118C163.878 132.589 169.757 131.189 177.259 132.363C193.343 134.892 196.519 148.303 195.911 153.948C195.303 159.592 191.924 162.663 190.809 163.611C189.694 164.559 189.322 164.875 189.423 165.553C189.558 166.546 190.099 166.501 191.045 166.32C192.363 166.004 199.493 161.76 199.797 151.374C200.304 138.098 190.842 123.603 174.116 123.738ZM50.0394 179.641C44.7005 187.408 37.2667 190.343 34.0567 187.86C30.6101 185.195 31.9617 173.726 38.517 165.508C42.5042 160.495 47.6403 155.844 51.0531 152.999C51.8302 152.367 52.9791 151.464 54.3645 150.335C54.601 150.155 54.7362 150.064 54.7362 150.064C55.0065 149.838 55.2768 149.613 55.5471 149.387C57.9462 161.127 55.6485 171.468 50.0394 179.641ZM88.8979 144.329C87.0394 150.38 83.1536 165.869 80.7883 165.011C78.7609 164.288 77.5107 152.548 80.3828 140.943C81.8358 135.118 84.9107 128.164 86.7015 125.454C89.6075 121.119 92.8175 119.674 93.5947 121.435C94.5746 123.738 90.0468 140.536 88.8979 144.329ZM120.965 164.83C120.187 165.372 119.444 165.733 119.106 165.462C118.87 165.282 119.444 164.559 119.444 164.559C119.444 164.559 123.465 158.779 125.053 156.16C125.966 154.625 127.047 152.819 128.196 150.787V151.374C128.196 158.283 123.195 162.934 120.965 164.83ZM145.699 157.289C145.125 156.747 145.226 154.941 147.152 149.297C147.895 147.084 149.652 143.381 152.66 139.814C152.998 141.259 153.234 142.659 153.2 143.968C153.167 152.683 148.504 155.934 145.699 157.289Z" fill="#CD6799"/>
</g>
<defs>
<clipPath id="clip0">
<rect width="200" height="200" fill="white"/>
</clipPath>
</defs>
</svg>
