<svg width="201" height="201" viewBox="0 0 201 201" fill="none" xmlns="http://www.w3.org/2000/svg">
<g clip-path="url(#clip0)">
<path d="M1 100L1 200H101H201V100V1.52588e-05H101H1L1 100Z" fill="#007ACC"/>
<path d="M45.2289 100.663L45.1654 108.854L58.1813 108.854H71.1972V145.838V182.822H80.4035H89.6099V145.838V108.854H102.626H115.642V100.822C115.642 96.3777 115.546 92.6634 115.419 92.5682C115.324 92.4412 99.4829 92.3777 80.2765 92.4095L45.3242 92.5047L45.2289 100.663Z" fill="white"/>
<path d="M162.381 92.2722C167.461 93.5421 171.334 95.796 174.889 99.4786C176.731 101.447 179.461 105.034 179.683 105.891C179.746 106.145 171.048 111.986 165.778 115.256C165.588 115.383 164.826 114.558 163.969 113.288C161.397 109.542 158.699 107.923 154.572 107.637C148.508 107.225 144.604 110.399 144.635 115.701C144.635 117.256 144.858 118.177 145.492 119.447C146.826 122.209 149.302 123.86 157.08 127.225C171.397 133.383 177.524 137.447 181.334 143.225C185.588 149.669 186.54 159.955 183.651 167.606C180.477 175.923 172.604 181.574 161.524 183.447C158.096 184.05 149.969 183.955 146.286 183.288C138.254 181.86 130.635 177.891 125.937 172.685C124.096 170.653 120.508 165.352 120.731 164.971C120.826 164.844 121.651 164.336 122.572 163.796C123.461 163.288 126.826 161.352 130 159.51L135.746 156.177L136.953 157.955C138.635 160.526 142.318 164.05 144.54 165.225C150.921 168.59 159.683 168.113 164 164.24C165.842 162.558 166.604 160.812 166.604 158.24C166.604 155.923 166.318 154.907 165.112 153.161C163.556 150.939 160.381 149.066 151.365 145.161C141.048 140.717 136.604 137.955 132.54 133.574C130.191 131.034 127.969 126.971 127.048 123.574C126.286 120.748 126.096 113.669 126.699 110.812C128.826 100.844 136.35 93.8913 147.207 91.8278C150.731 91.1611 158.921 91.4151 162.381 92.2722Z" fill="white"/>
</g>
<defs>
<clipPath id="clip0">
<rect width="200" height="200" fill="white" transform="translate(0.904297 0.335022)"/>
</clipPath>
</defs>
</svg>
