<svg width="555" height="523" viewBox="0 0 555 523" fill="none" xmlns="http://www.w3.org/2000/svg">

<path id="shadow" d="M372.199 145.096L527.875 234.566C545.092 244.462 546.145 268.685 529.844 279.882L206.847 501.754C198.059 507.791 186.486 508.128 177.31 502.614L23.0145 409.888C6.14405 399.75 5.40028 375.789 21.6139 364.768L343.231 146.151C351.851 140.292 363.126 139.881 372.199 145.096Z" fill="#CFCFCF" stroke="#CFCFCF" stroke-width="14"/>
<g id="phone">
<path id="rama" d="M374.22 64.0772L529.896 153.548C547.113 163.443 548.166 187.666 531.865 198.864L208.868 420.735C200.08 426.772 188.507 427.109 179.331 421.595L25.0355 328.87C8.16504 318.731 7.42128 294.77 23.6349 283.749L345.252 65.1323C353.872 59.273 365.147 58.8623 374.22 64.0772Z" fill="white" stroke="#535353" stroke-width="14"/>
<path id="rama2" d="M372.908 54.0862L528.583 143.557C545.801 153.452 546.853 177.675 530.552 188.873L207.555 410.744C198.767 416.781 187.194 417.118 178.019 411.604L23.723 318.879C6.85253 308.74 6.10878 284.779 22.3224 273.758L343.939 55.1413C352.559 49.282 363.834 48.8714 372.908 54.0862Z" fill="white" stroke="#535353" stroke-width="14"/>
<path id="screen" d="M526.528 183.145C538.603 174.85 537.823 156.907 525.069 149.578L369.394 60.1069C362.672 56.2441 354.321 56.5483 347.936 60.8885L26.3187 279.505C14.3086 287.669 14.8595 305.418 27.3561 312.928L181.652 405.653C188.448 409.738 197.021 409.488 203.531 405.017L526.528 183.145Z" fill="white"/>
<path id="microphone" d="M483.233 128.667C487.161 122.491 485.176 114.341 478.845 110.652L424.22 78.8237C418.341 75.3982 410.768 77.092 406.915 82.6942V82.6942C402.703 88.8176 404.563 97.1697 410.976 100.934L465.497 132.937C471.581 136.509 479.45 134.614 483.233 128.667V128.667Z" fill="#535353"/>
</g>
</svg>
