<svg width="555" height="555" viewBox="0 0 555 555" fill="none" xmlns="http://www.w3.org/2000/svg">
<rect width="555" height="555" fill="#E5E5E5"/>
<g id="phone">
<g id="shadow">
<path id="Rectangle 15" d="M527.875 234.567C545.092 244.462 546.145 268.685 529.844 279.883L206.847 501.754C198.059 507.791 186.486 508.128 177.31 502.614L23.0145 409.888C6.1441 399.75 5.40023 375.789 21.6139 364.768L343.231 146.151C351.851 140.292 363.126 139.881 372.199 145.096L527.875 234.567Z" fill="#E2E2E2" stroke="#E2E2E2" stroke-width="14"/>
</g>
<g id="screen">
<path id="Rectangle 23" d="M529.896 153.548C547.113 163.443 548.166 187.666 531.865 198.864L208.868 420.735C200.08 426.772 188.507 427.109 179.331 421.595L25.0355 328.87C8.1651 318.731 7.42123 294.77 23.6349 283.749L345.252 65.1323C353.872 59.2731 365.147 58.8624 374.22 64.0772L529.896 153.548Z" fill="white" stroke="#535353" stroke-width="14"/>
<path id="Rectangle 8" d="M528.583 143.557C545.801 153.452 546.853 177.675 530.552 188.873L207.555 410.744C198.767 416.781 187.194 417.118 178.019 411.604L23.723 318.879C6.85259 308.74 6.10873 284.779 22.3224 273.758L343.939 55.1414C352.559 49.2821 363.834 48.8714 372.908 54.0863L528.583 143.557Z" fill="white" stroke="#535353" stroke-width="14"/>
<path id="Rectangle 9" d="M483.233 128.667C487.162 122.491 485.177 114.341 478.845 110.652L424.22 78.8237C418.341 75.3982 410.768 77.092 406.915 82.6942C402.703 88.8176 404.563 97.1697 410.976 100.934L465.497 132.937C471.581 136.509 479.451 134.614 483.233 128.667Z" fill="#535353"/>
</g>
</g>
</svg>
