<svg width="555" height="770" viewBox="0 0 555 770" fill="none" xmlns="http://www.w3.org/2000/svg">
<g id="Frame 1">
<g id="shadow">
<path id="shadow_2" d="M373.199 385.096L528.875 474.567C546.092 484.462 547.145 508.685 530.844 519.883L207.847 741.754C199.059 747.791 187.486 748.128 178.31 742.614L24.0145 649.888C7.14405 639.75 6.40028 615.789 22.6139 604.768L344.231 386.151C352.851 380.292 364.126 379.881 373.199 385.096Z" fill="#CFCFCF" stroke="#CFCFCF" stroke-width="14"/>
</g>
<g id="phone">
<path id="Rectangle 23" d="M375.22 304.077L530.896 393.548C548.113 403.443 549.166 427.666 532.865 438.864L209.868 660.735C201.08 666.772 189.507 667.109 180.331 661.595L26.0355 568.87C9.16504 558.731 8.42128 534.77 24.6349 523.749L346.252 305.132C354.872 299.273 366.147 298.862 375.22 304.077Z" fill="white" stroke="#535353" stroke-width="14"/>
<path id="Rectangle 8" d="M373.908 294.086L529.583 383.557C546.801 393.452 547.853 417.675 531.552 428.873L208.555 650.744C199.767 656.781 188.194 657.118 179.019 651.604L24.723 558.879C7.85253 548.74 7.10878 524.779 23.3224 513.758L344.939 295.141C353.559 289.282 364.834 288.871 373.908 294.086Z" fill="white" stroke="#535353" stroke-width="14"/>
<path id="Rectangle 9" d="M484.233 368.667C488.161 362.491 486.176 354.341 479.845 350.652L425.22 318.824C419.341 315.398 411.768 317.092 407.915 322.694V322.694C403.703 328.818 405.563 337.17 411.976 340.934L466.497 372.937C472.581 376.509 480.45 374.614 484.233 368.667V368.667Z" fill="#535353"/>
</g>
<g id="shadowBall">
<ellipse id="Ellipse 3" cx="265" cy="482" rx="64" ry="14" fill="#C4C4C4"/>
</g>
<g id="ball">
<circle id="Ellipse 2" cx="265" cy="421" r="61" fill="#B60000"/>
</g>
</g>
</svg>
